<svg xmlns="http://www.w3.org/2000/svg" xmlns:xlink="http://www.w3.org/1999/xlink" width="152.234" height="85.463" viewBox="0 0 152.234 85.463">
  <defs>
    <clipPath id="clip-path">
      <rect id="Rect치ngulo_431" data-name="Rect치ngulo 431" width="152.234" height="85.463" fill="none"/>
    </clipPath>
  </defs>
  <g id="BCC_Logo" data-name="BCC Logo" transform="translate(-795 -467)">
    <g id="Grupo_2204" data-name="Grupo 2204" transform="translate(795 467)">
      <g id="Grupo_2203" data-name="Grupo 2203" transform="translate(0 0)" clip-path="url(#clip-path)">
        <path id="Trazado_1194" data-name="Trazado 1194" d="M50.925,23.323a3.036,3.036,0,0,0,2.713-1.592,3.22,3.22,0,0,0,.428-1.6,3.272,3.272,0,0,0-.428-1.608,3.13,3.13,0,0,0-1.156-1.184,3.007,3.007,0,0,0-1.542-.432,3.18,3.18,0,0,0-1.592.432,2.964,2.964,0,0,0-1.156,1.142,3.269,3.269,0,0,0-.4,1.618,3.162,3.162,0,0,0,.9,2.3,3.017,3.017,0,0,0,2.233.925m-4.07.778V13.137h1.011v4.414A4.265,4.265,0,0,1,49.3,16.379a4,4,0,0,1,4.6.83,4.062,4.062,0,0,1,1.194,2.953,4.006,4.006,0,0,1-1.2,2.931A3.9,3.9,0,0,1,51.006,24.3a3.71,3.71,0,0,1-1.753-.414,4.129,4.129,0,0,1-1.387-1.24V24.1Z" transform="translate(47.321 13.269)" fill="#fff"/>
        <path id="Trazado_1195" data-name="Trazado 1195" d="M55.83,15.537a3.069,3.069,0,0,0-1.572.42,3.111,3.111,0,0,0-1.15,1.172,3.254,3.254,0,0,0-.422,1.6,3.217,3.217,0,0,0,.432,1.6,3.147,3.147,0,0,0,1.148,1.192,3.046,3.046,0,0,0,1.556.422,3.177,3.177,0,0,0,1.586-.422,2.938,2.938,0,0,0,1.148-1.14,3.2,3.2,0,0,0,.408-1.622,3.143,3.143,0,0,0-.909-2.3,2.985,2.985,0,0,0-2.225-.925m4.072-.778V22.67h-1V21.309a4.386,4.386,0,0,1-1.441,1.172,4.018,4.018,0,0,1-4.609-.822,4.106,4.106,0,0,1-1.184-2.969,4,4,0,0,1,1.2-2.92,3.9,3.9,0,0,1,2.886-1.214,3.721,3.721,0,0,1,1.759.412A4.052,4.052,0,0,1,58.9,16.21V14.759Z" transform="translate(52.177 14.702)" fill="#fff"/>
        <path id="Trazado_1196" data-name="Trazado 1196" d="M61.589,15.623l-.655.677a2.34,2.34,0,0,0-1.594-.792,1.2,1.2,0,0,0-.848.326,1.019,1.019,0,0,0-.35.764,1.138,1.138,0,0,0,.293.736,4.03,4.03,0,0,0,1.22.834A4.616,4.616,0,0,1,61.2,19.3a2.064,2.064,0,0,1,.4,1.244,2.239,2.239,0,0,1-.681,1.648,2.35,2.35,0,0,1-1.71.677,2.985,2.985,0,0,1-1.31-.3,2.8,2.8,0,0,1-1.025-.824l.639-.724a2.223,2.223,0,0,0,1.652.878,1.482,1.482,0,0,0,1.039-.394,1.213,1.213,0,0,0,.428-.923,1.181,1.181,0,0,0-.283-.776,4.508,4.508,0,0,0-1.28-.846,4.09,4.09,0,0,1-1.453-1.089,2.055,2.055,0,0,1-.386-1.232,2,2,0,0,1,.613-1.493,2.143,2.143,0,0,1,1.556-.6,3.219,3.219,0,0,1,2.195,1.067" transform="translate(57.436 14.702)" fill="#fff"/>
        <path id="Trazado_1197" data-name="Trazado 1197" d="M64.06,15.537a3.092,3.092,0,0,0-2.717,1.592,3.2,3.2,0,0,0,.008,3.2A3.132,3.132,0,0,0,62.5,21.52a3.046,3.046,0,0,0,1.556.422,3.177,3.177,0,0,0,1.586-.422,2.924,2.924,0,0,0,1.148-1.14,3.262,3.262,0,0,0,.408-1.622,3.141,3.141,0,0,0-.906-2.3,2.994,2.994,0,0,0-2.229-.925m4.072-.778v10.8h-1V21.309a4.42,4.42,0,0,1-1.439,1.172,4.024,4.024,0,0,1-4.613-.822A4.106,4.106,0,0,1,59.9,18.69a4,4,0,0,1,1.2-2.92,3.9,3.9,0,0,1,2.886-1.214,3.721,3.721,0,0,1,1.759.412,4.113,4.113,0,0,1,1.391,1.242V14.759Z" transform="translate(60.491 14.702)" fill="#fff"/>
        <path id="Trazado_1198" data-name="Trazado 1198" d="M65.03,14.657h1.023v3.692a7.805,7.805,0,0,0,.147,1.863,2.078,2.078,0,0,0,.828,1.148,2.545,2.545,0,0,0,1.471.422,2.445,2.445,0,0,0,1.439-.41,2.1,2.1,0,0,0,.82-1.081,7.488,7.488,0,0,0,.155-1.942V14.657h1.039V18.54A6.076,6.076,0,0,1,71.566,21a2.92,2.92,0,0,1-1.148,1.3,3.645,3.645,0,0,1-1.92.466,3.725,3.725,0,0,1-1.936-.466A2.915,2.915,0,0,1,65.408,21a6.482,6.482,0,0,1-.378-2.529Z" transform="translate(65.677 14.804)" fill="#fff"/>
        <path id="Trazado_1199" data-name="Trazado 1199" d="M76.369,17.913a3.315,3.315,0,0,0-.6-1.3,2.79,2.79,0,0,0-1.023-.788,3.14,3.14,0,0,0-1.345-.3,2.89,2.89,0,0,0-2,.75,3.345,3.345,0,0,0-.925,1.634Zm0,2.133.858.448a4.677,4.677,0,0,1-.975,1.341,3.9,3.9,0,0,1-1.244.778,4.41,4.41,0,0,1-1.562.261,3.782,3.782,0,0,1-3.025-1.264,4.3,4.3,0,0,1-1.089-2.872,4.22,4.22,0,0,1,.923-2.681,3.775,3.775,0,0,1,3.136-1.5,3.886,3.886,0,0,1,3.224,1.534,4.256,4.256,0,0,1,.874,2.705H70.377a3.241,3.241,0,0,0,.882,2.267,2.8,2.8,0,0,0,2.1.88,3.351,3.351,0,0,0,1.17-.211,3.045,3.045,0,0,0,.973-.561,4.746,4.746,0,0,0,.864-1.126" transform="translate(70.022 14.702)" fill="#fff"/>
        <path id="Trazado_1200" data-name="Trazado 1200" d="M54.9,26.08l-.808.5A3.389,3.389,0,0,0,51.239,25.2a3.319,3.319,0,0,0-2.406.929,3.043,3.043,0,0,0-.951,2.261,3.247,3.247,0,0,0,.432,1.628A3.126,3.126,0,0,0,49.522,31.2a3.533,3.533,0,0,0,1.725.42,3.473,3.473,0,0,0,2.85-1.387l.808.531a3.835,3.835,0,0,1-1.528,1.323,4.9,4.9,0,0,1-2.173.464,4.3,4.3,0,0,1-3.113-1.19,3.88,3.88,0,0,1-1.236-2.9,4.149,4.149,0,0,1,.575-2.131,4.076,4.076,0,0,1,1.592-1.542,4.64,4.64,0,0,1,2.263-.551,4.768,4.768,0,0,1,1.511.239,4.17,4.17,0,0,1,1.244.625,3.443,3.443,0,0,1,.864.981" transform="translate(47.321 24.477)" fill="#fff"/>
        <path id="Trazado_1201" data-name="Trazado 1201" d="M51.768,24.336h1.023v3.692a7.774,7.774,0,0,0,.149,1.863,2.078,2.078,0,0,0,.826,1.148,2.545,2.545,0,0,0,1.471.422,2.472,2.472,0,0,0,1.439-.406,2.111,2.111,0,0,0,.82-1.085,7.508,7.508,0,0,0,.153-1.942V24.336h1.039v3.883a6.041,6.041,0,0,1-.386,2.464,2.892,2.892,0,0,1-1.146,1.3,3.626,3.626,0,0,1-1.92.468,3.7,3.7,0,0,1-1.936-.468,2.915,2.915,0,0,1-1.156-1.308,6.482,6.482,0,0,1-.378-2.529Z" transform="translate(52.283 24.579)" fill="#fff"/>
        <rect id="Rect치ngulo_430" data-name="Rect치ngulo 430" width="1.017" height="10.964" transform="translate(113.082 45.859)" fill="#fff"/>
        <path id="Trazado_1202" data-name="Trazado 1202" d="M58.4,25.975h1.023v7.911H58.4Zm.509-3.26a.839.839,0,0,1,.6,1.431.83.83,0,0,1-1.186,0,.8.8,0,0,1-.245-.589.81.81,0,0,1,.245-.595.8.8,0,0,1,.589-.247" transform="translate(58.656 22.942)" fill="#fff"/>
        <path id="Trazado_1203" data-name="Trazado 1203" d="M60.016,24.439h1.019v1.417a4.208,4.208,0,0,1,1.353-1.214A3.317,3.317,0,0,1,64,24.234a2.8,2.8,0,0,1,1.572.45A2.7,2.7,0,0,1,66.591,25.9a6.437,6.437,0,0,1,.328,2.378V32.35H65.907V28.576a9.2,9.2,0,0,0-.115-1.825,2.015,2.015,0,0,0-.683-1.178,2.054,2.054,0,0,0-1.31-.4,2.516,2.516,0,0,0-1.658.611,2.874,2.874,0,0,0-.959,1.513,10.372,10.372,0,0,0-.147,2.153v2.9H60.016Z" transform="translate(60.613 24.476)" fill="#fff"/>
        <path id="Trazado_1204" data-name="Trazado 1204" d="M68.577,25.216a3.072,3.072,0,0,0-1.57.42,3.116,3.116,0,0,0-1.15,1.174,3.233,3.233,0,0,0,.01,3.2A3.161,3.161,0,0,0,67.015,31.2a3.041,3.041,0,0,0,1.556.422,3.182,3.182,0,0,0,1.586-.422A2.925,2.925,0,0,0,71.3,30.06a3.2,3.2,0,0,0,.408-1.622,3.135,3.135,0,0,0-.909-2.3,2.98,2.98,0,0,0-2.227-.925m4.074-.778v7.911h-1V30.988a4.427,4.427,0,0,1-1.441,1.172,4.012,4.012,0,0,1-4.611-.822,4.114,4.114,0,0,1-1.184-2.969,4,4,0,0,1,1.2-2.92A3.9,3.9,0,0,1,68.5,24.235a3.739,3.739,0,0,1,1.759.412A4.034,4.034,0,0,1,71.648,25.9V24.438Z" transform="translate(65.053 24.477)" fill="#fff"/>
        <path id="Trazado_1205" data-name="Trazado 1205" d="M69.785,24.439h1.037v1.156a3.638,3.638,0,0,1,.981-1.017,1.926,1.926,0,0,1,1.079-.344,1.885,1.885,0,0,1,.9.269l-.531.858a1.371,1.371,0,0,0-.537-.137,1.46,1.46,0,0,0-.981.418,2.614,2.614,0,0,0-.722,1.3,12.332,12.332,0,0,0-.191,2.732V32.35H69.785Z" transform="translate(70.48 24.476)" fill="#fff"/>
        <path id="Trazado_1206" data-name="Trazado 1206" d="M72,24.336h1.075l2.717,6.092,2.641-6.092h1.083L74.8,35.14H73.722l1.528-3.487Z" transform="translate(72.716 24.579)" fill="#fff"/>
        <path id="Trazado_1207" data-name="Trazado 1207" d="M54.9,35.6l-.806.5a3.389,3.389,0,0,0-2.858-1.389,3.311,3.311,0,0,0-2.406.929,3.042,3.042,0,0,0-.953,2.261,3.228,3.228,0,0,0,.434,1.628,3.1,3.1,0,0,0,1.21,1.186,3.662,3.662,0,0,0,4.573-.967l.806.533a3.818,3.818,0,0,1-1.526,1.323,4.932,4.932,0,0,1-2.175.464,4.3,4.3,0,0,1-3.111-1.192,3.872,3.872,0,0,1-1.236-2.9,4.144,4.144,0,0,1,.575-2.131,4.063,4.063,0,0,1,1.592-1.542,4.66,4.66,0,0,1,2.261-.551A4.768,4.768,0,0,1,52.794,34a4.182,4.182,0,0,1,1.246.625,3.445,3.445,0,0,1,.862.983" transform="translate(47.321 34.093)" fill="#fff"/>
        <path id="Trazado_1208" data-name="Trazado 1208" d="M58.683,37.116a3.358,3.358,0,0,0-.6-1.3,2.8,2.8,0,0,0-1.023-.784,3.14,3.14,0,0,0-1.345-.3,2.9,2.9,0,0,0-2,.75,3.366,3.366,0,0,0-.923,1.636Zm0,2.131.858.448a4.665,4.665,0,0,1-.975,1.339,3.89,3.89,0,0,1-1.244.78,4.366,4.366,0,0,1-1.562.259,3.783,3.783,0,0,1-3.025-1.262,4.3,4.3,0,0,1-1.091-2.874,4.233,4.233,0,0,1,.925-2.681,3.776,3.776,0,0,1,3.134-1.5,3.905,3.905,0,0,1,3.23,1.534A4.287,4.287,0,0,1,59.8,38H52.691a3.237,3.237,0,0,0,.882,2.267,2.8,2.8,0,0,0,2.1.88,3.337,3.337,0,0,0,1.17-.213,3.025,3.025,0,0,0,.977-.559,4.889,4.889,0,0,0,.862-1.126" transform="translate(52.158 34.092)" fill="#fff"/>
        <path id="Trazado_1209" data-name="Trazado 1209" d="M56.912,33.959h1.015v1.417a4.24,4.24,0,0,1,1.357-1.214,3.316,3.316,0,0,1,1.612-.406,2.8,2.8,0,0,1,1.572.448,2.693,2.693,0,0,1,1.017,1.216,6.4,6.4,0,0,1,.33,2.38v4.07H62.8V38.1a9.213,9.213,0,0,0-.115-1.825A2.013,2.013,0,0,0,62,35.093a2.04,2.04,0,0,0-1.308-.4,2.519,2.519,0,0,0-1.656.609,2.866,2.866,0,0,0-.961,1.513,10.476,10.476,0,0,0-.149,2.153v2.9H56.912Z" transform="translate(57.479 34.093)" fill="#fff"/>
        <path id="Trazado_1210" data-name="Trazado 1210" d="M62.631,32.395h1.025v2.939h1.616v.872H63.656v7.039H62.631V36.206H61.244v-.872h1.387Z" transform="translate(61.854 32.718)" fill="#fff"/>
        <path id="Trazado_1211" data-name="Trazado 1211" d="M70.854,37.116a3.447,3.447,0,0,0-.595-1.3,2.794,2.794,0,0,0-1.025-.784,3.166,3.166,0,0,0-1.345-.3,2.9,2.9,0,0,0-2,.75,3.349,3.349,0,0,0-.921,1.636Zm0,2.131.858.448a4.742,4.742,0,0,1-.975,1.339,3.912,3.912,0,0,1-1.244.78,4.366,4.366,0,0,1-1.562.259,3.773,3.773,0,0,1-3.023-1.262,4.29,4.29,0,0,1-1.093-2.874,4.222,4.222,0,0,1,.925-2.681,3.773,3.773,0,0,1,3.134-1.5A3.89,3.89,0,0,1,71.1,35.289,4.289,4.289,0,0,1,71.973,38H64.862a3.244,3.244,0,0,0,.88,2.267,2.8,2.8,0,0,0,2.1.88,3.359,3.359,0,0,0,1.174-.213,3,3,0,0,0,.973-.559,4.832,4.832,0,0,0,.864-1.126" transform="translate(64.45 34.092)" fill="#fff"/>
        <path id="Trazado_1212" data-name="Trazado 1212" d="M68.845,33.959h1.039v1.156a3.638,3.638,0,0,1,.981-1.017,1.924,1.924,0,0,1,1.077-.342,1.852,1.852,0,0,1,.9.267l-.531.86a1.371,1.371,0,0,0-.539-.139,1.474,1.474,0,0,0-.981.42,2.626,2.626,0,0,0-.72,1.3,12.383,12.383,0,0,0-.189,2.734V41.87H68.845Z" transform="translate(69.53 34.093)" fill="#fff"/>
        <path id="Trazado_1213" data-name="Trazado 1213" d="M44.663,26.957,43.081,30.39q-12.614-.9-21.989,3.841-7.483,3.793-7.626,8.725-.127,4.941,6.755,8.426a33.63,33.63,0,0,0,10.7,3.111,43.8,43.8,0,0,0,12.379-.06,35.954,35.954,0,0,0,11.087-3.4q9.03-4.568,7.559-11.1l6.932-.722a7.654,7.654,0,0,1-1.031,7.467Q65.328,50.413,59,53.623a49.86,49.86,0,0,1-22.319,5.031Q24.1,58.777,15.239,54.3,9.3,51.287,7.185,47.189a8.086,8.086,0,0,1,.267-8.2q2.385-4.094,8.862-7.377a44.892,44.892,0,0,1,9.1-3.351,54.284,54.284,0,0,1,9.678-1.606,48.125,48.125,0,0,1,9.569.3" transform="translate(6.258 26.806)" fill="#fff"/>
        <path id="Trazado_1214" data-name="Trazado 1214" d="M44.663,18.465,43.081,21.9Q30.466,21,21.092,25.741q-7.483,3.79-7.626,8.729-.127,4.938,6.755,8.422a33.681,33.681,0,0,0,10.7,3.113,43.953,43.953,0,0,0,12.379-.06,35.954,35.954,0,0,0,11.087-3.4q9.03-4.559,7.559-11.1l6.932-.728a7.657,7.657,0,0,1-1.031,7.469Q65.328,41.927,59,45.129a49.889,49.889,0,0,1-22.319,5.037q-12.581.118-21.44-4.36Q9.3,42.795,7.185,38.7a8.09,8.09,0,0,1,.267-8.2q2.385-4.1,8.862-7.381a45.129,45.129,0,0,1,9.1-3.345,55.247,55.247,0,0,1,9.678-1.614,49.058,49.058,0,0,1,9.569.306" transform="translate(6.258 18.231)" fill="#fff"/>
        <path id="Trazado_1215" data-name="Trazado 1215" d="M24.739,42.173a30.024,30.024,0,0,0,10.18,3.568,45.6,45.6,0,0,0,12.5.422A38.414,38.414,0,0,0,58.845,43.4a17.215,17.215,0,0,0,7.26-5.288,6.668,6.668,0,0,0,1.246-6.368q-1.085-3.19-5.135-5.6a31.085,31.085,0,0,0-10.319-3.6,43.6,43.6,0,0,0-12.385-.533A38.4,38.4,0,0,0,28.065,24.9q-8.014,3.434-8.934,8.412t5.608,8.862M0,32.107,75.6,0l5.781,2.3-38.1,16.4a61.819,61.819,0,0,1,13.933,1.274,36.449,36.449,0,0,1,10.868,4.143q8.3,4.951,7.085,11.509T63.808,46.537q-10.019,4.3-23.032,3.809T19.414,44.888q-4.785-2.849-6.251-6.2a8.324,8.324,0,0,1,.382-7.208L5.061,35.122Z" transform="translate(0 0.001)" fill="#fff"/>
        <path id="Trazado_1216" data-name="Trazado 1216" d="M24.739,42.173a30.024,30.024,0,0,0,10.18,3.568,45.6,45.6,0,0,0,12.5.422A38.414,38.414,0,0,0,58.845,43.4a17.215,17.215,0,0,0,7.26-5.288,6.668,6.668,0,0,0,1.246-6.368q-1.085-3.19-5.135-5.6a31.085,31.085,0,0,0-10.319-3.6,43.6,43.6,0,0,0-12.385-.533A38.4,38.4,0,0,0,28.065,24.9q-8.014,3.434-8.934,8.412t5.608,8.862M0,32.107,75.6,0l5.781,2.3-38.1,16.4a61.819,61.819,0,0,1,13.933,1.274,36.449,36.449,0,0,1,10.868,4.143q8.3,4.951,7.085,11.509T63.808,46.537q-10.019,4.3-23.032,3.809T19.414,44.888q-4.785-2.849-6.251-6.2a8.324,8.324,0,0,1,.382-7.208L5.061,35.122Z" transform="translate(0 0.001)" fill="#fff"/>
      </g>
    </g>
  </g>
</svg>
