<svg id="Capa_3" data-name="Capa 3" xmlns="http://www.w3.org/2000/svg" xmlns:xlink="http://www.w3.org/1999/xlink" viewBox="0 0 551 579"><defs><style>.cls-1{fill:none;}.cls-2{fill:#27536b;}.cls-3{clip-path:url(#clip-path);}.cls-4{fill:#ff884d;}.cls-5{fill:#ffc34d;}.cls-6{fill:#ffff80;}.cls-7{fill:#146666;}.cls-8{fill:#00a98f;}.cls-9{fill:#29cc95;}</style><clipPath id="clip-path" transform="translate(16)"><circle class="cls-1" cx="255.99" cy="255.99" r="255.99"/></clipPath></defs><circle class="cls-2" cx="271.99" cy="255.99" r="255.99"/><g class="cls-3"><path class="cls-4" d="M412.61,257.24,256.85,345.45,243.29,212.92l13.56-102.34A156.62,156.62,0,0,1,411.63,248.86Z" transform="translate(16)"/><path class="cls-5" d="M256.85,110.58V345.45l-15.55,8.81L99.47,256.46l.9-7.6A156.62,156.62,0,0,1,256,110.58Z" transform="translate(16)"/><path class="cls-5" d="M268.71,25.87v59.3H256.85l-6.78-29.65,6.78-29.65Z" transform="translate(16)"/><path class="cls-6" d="M243.29,25.87h13.56v59.3H243.29Z" transform="translate(16)"/><path class="cls-6" d="M126.41,64l22-12.7,29.65,51.34-22,12.71Z" transform="translate(16)"/><path class="cls-6" d="M44.24,155.47l12.71-22,51.35,29.65-12.71,22Z" transform="translate(16)"/><path class="cls-5" d="M403.69,163.11,455,133.46l12.71,22L416.4,185.11Z" transform="translate(16)"/><path class="cls-5" d="M333.93,102.65,363.58,51.3l22,12.71-29.65,51.34Z" transform="translate(16)"/><path class="cls-7" d="M459.29,229.17c-68.88,0-135.14,21.17-193.55,57.67l-28.21,17.63L351.94,413.92l115.5,18.54H472l63-203.29Z" transform="translate(16)"/><path class="cls-8" d="M467.44,432.46,256.85,579l-10.3-216.61,10.3-70.06Z" transform="translate(16)"/><path class="cls-9" d="M256.85,292.33V579L18.5,447.62-16,228.5l68.71.67a361.19,361.19,0,0,1,194.22,56.56l.22.14Z" transform="translate(16)"/></g></svg>