<svg id="Day" xmlns="http://www.w3.org/2000/svg" viewBox="0 0 511.99 511.99"><defs><style>.cls-1{fill:#58c4f2;}.cls-2{fill:#f5d573;}.cls-3{fill:#f7c22c;}.cls-4{fill:#ff9100;}.cls-5{fill:#64b5f6;}.cls-6{fill:#bbdefb;}</style></defs><circle class="cls-1" cx="255.99" cy="255.99" r="255.99"/><circle class="cls-2" cx="256" cy="256.5" r="136.94"/><path class="cls-3" d="M393,256.5a136.95,136.95,0,0,1-224.89,105A137,137,0,0,0,316.79,133.76,136.94,136.94,0,0,1,393,256.5Z"/><path class="cls-4" d="M256,73.88A6.9,6.9,0,0,0,262.89,67V27.89a6.89,6.89,0,1,0-13.78,0V67A6.9,6.9,0,0,0,256,73.88Z"/><path class="cls-4" d="M256,439.12a6.9,6.9,0,0,0-6.89,6.89v39.1a6.89,6.89,0,0,0,13.78,0V446A6.9,6.9,0,0,0,256,439.12Z"/><path class="cls-4" d="M155.28,95.82a6.89,6.89,0,0,0,11.93-6.88L147.66,55.07A6.89,6.89,0,1,0,135.73,62Z"/><path class="cls-4" d="M356.72,417.18a6.89,6.89,0,0,0-11.93,6.88l19.55,33.87a6.88,6.88,0,0,0,6,3.44,6.81,6.81,0,0,0,3.44-.92,6.89,6.89,0,0,0,2.52-9.41Z"/><path class="cls-4" d="M95.32,155.78,61.46,136.23a6.89,6.89,0,0,0-6.89,11.93l33.87,19.55a6.89,6.89,0,0,0,6.88-11.93Z"/><path class="cls-4" d="M457.43,364.84l-33.87-19.55a6.89,6.89,0,0,0-6.88,11.93l33.86,19.55a6.89,6.89,0,1,0,6.89-11.93Z"/><path class="cls-4" d="M73.38,256.5a6.9,6.9,0,0,0-6.89-6.89H27.39a6.89,6.89,0,0,0,0,13.78h39.1A6.9,6.9,0,0,0,73.38,256.5Z"/><path class="cls-4" d="M484.61,249.61h-39.1a6.89,6.89,0,0,0,0,13.78h39.1a6.89,6.89,0,0,0,0-13.78Z"/><path class="cls-4" d="M88.44,345.29,54.57,364.84a6.89,6.89,0,0,0,6.89,11.93l33.86-19.55a6.89,6.89,0,0,0-6.88-11.93Z"/><path class="cls-4" d="M420.13,168.63a6.8,6.8,0,0,0,3.43-.92l33.87-19.55a6.89,6.89,0,0,0-6.89-11.93l-33.86,19.55a6.89,6.89,0,0,0,3.45,12.85Z"/><path class="cls-4" d="M164.69,414.66a6.88,6.88,0,0,0-9.41,2.52L135.73,451a6.89,6.89,0,0,0,2.52,9.41,6.81,6.81,0,0,0,3.44.92,6.88,6.88,0,0,0,6-3.44l19.55-33.87a6.88,6.88,0,0,0-2.52-9.4Z"/><path class="cls-4" d="M347.31,98.34a6.87,6.87,0,0,0,9.41-2.52L376.27,62a6.89,6.89,0,0,0-11.93-6.89L344.79,88.94a6.88,6.88,0,0,0,2.52,9.4Z"/><path class="cls-5" d="M432,327.71h0A61.9,61.9,0,0,0,313.1,347.07a33.33,33.33,0,0,0,4.6,66.34H432a42.85,42.85,0,0,0,0-85.7Z"/><path class="cls-6" d="M393.88,346.75h0A61.9,61.9,0,0,0,275,366.11a33.33,33.33,0,0,0,4.6,66.35H393.88a42.86,42.86,0,0,0,0-85.71Z"/></svg>