<svg width="166" height="67" viewBox="0 0 166 67" fill="none" xmlns="http://www.w3.org/2000/svg">
<g clip-path="url(#clip0)">
<path d="M140.854 50.965H140.431V51.4229H141.534V58.3934H140.431V58.8512H144.182V58.3934H143.099V54.6887C143.099 53.1931 144.14 51.3427 145.508 51.3427C146.312 51.3427 146.773 51.564 146.773 53.0177V58.3972H145.731V58.855H149.421V58.3972H148.337V52.762C148.337 50.9307 146.673 50.7705 145.95 50.7705C144.486 50.7705 143.702 51.6251 143.141 52.8803H143.102V50.7705C142.741 50.8506 142.361 50.9116 141.98 50.9307C141.619 50.965 141.238 50.965 140.854 50.965ZM132.007 35.8642V37.7146C132.007 38.5501 131.727 38.7714 131.565 38.9278C131.085 39.3475 130.662 39.504 130.02 39.504C129.098 39.504 128.475 38.905 128.475 37.9321C128.475 36.1007 130.704 35.8833 132.007 35.8642ZM128.698 33.0523C128.698 32.4762 130.124 32.3351 130.562 32.3351C131.265 32.3351 132.007 32.6136 132.007 33.5483V35.4407C128.936 35.4407 127.03 36.4746 126.972 38.3288C126.972 39.8015 128.056 40.2823 129.321 40.2823C130.343 40.2823 131.346 39.9046 132.03 39.069C132.172 39.8054 132.591 40.2823 133.333 40.2823C134.255 40.2823 134.978 39.5841 135.039 38.6493H134.697C134.597 38.9889 134.398 39.5459 133.994 39.5459C133.571 39.5459 133.571 39.2293 133.571 38.6303V33.8917C133.571 33.0943 133.571 31.9383 130.843 31.9383C128.456 31.9383 127.634 33.1324 127.634 33.8497C127.634 34.4067 127.933 34.8074 128.475 34.8074C128.975 34.8074 129.298 34.4678 129.298 33.9718C129.298 33.3118 128.698 33.2126 128.698 33.0523ZM110.689 56.7604C110.689 54.9291 112.914 54.7078 114.221 54.6887V56.543C114.221 57.3785 113.94 57.5998 113.779 57.7562C113.298 58.1759 112.876 58.3323 112.234 58.3323C111.311 58.3361 110.689 57.7371 110.689 56.7604ZM109.182 57.161C109.182 58.6337 110.266 59.1145 111.53 59.1145C112.553 59.1145 113.556 58.7367 114.24 57.9012C114.382 58.6375 114.801 59.1145 115.543 59.1145C116.465 59.1145 117.188 58.4163 117.249 57.4815H116.907C116.807 57.8211 116.607 58.3781 116.204 58.3781C115.781 58.3781 115.781 58.0576 115.781 57.4624V52.7201C115.781 51.9227 115.781 50.7666 113.052 50.7666C110.666 50.7666 109.843 51.9608 109.843 52.6781C109.843 53.2351 110.143 53.6357 110.685 53.6357C111.188 53.6357 111.507 53.2962 111.507 52.8002C111.507 52.1439 110.904 52.0448 110.904 51.8845C110.904 51.3084 112.33 51.1672 112.768 51.1672C113.471 51.1672 114.213 51.4458 114.213 52.3805V54.2729C111.15 54.2729 109.244 55.3068 109.182 57.161ZM104.828 45.6809H103.967V46.1387H105.512V58.3934H103.967V58.8512H108.621V58.3934H107.076V45.5016C106.35 45.6427 105.57 45.6809 104.828 45.6809ZM105.508 32.1367H103.963V32.5945H105.508V39.565H103.963V40.0228H108.294V39.565H107.072V32.5945H110.704V39.565H109.501V40.0228H113.452V39.565H112.268V31.9344C111.546 32.1138 110.762 32.1328 110.02 32.1328H107.072V30.6983C107.072 28.6686 107.495 26.635 109.278 26.635C109.62 26.635 110.424 26.7953 110.424 27.0738C110.424 27.1158 110.043 27.3714 110.043 27.7109C110.043 28.2489 110.424 28.6686 110.965 28.6686C111.365 28.6686 111.788 28.2489 111.788 27.833C111.788 26.6198 110.262 26.2611 109.321 26.2611C107.153 26.2611 105.508 27.936 105.508 31.1599V32.1367ZM96.8801 56.7604C96.8801 54.9291 99.1053 54.7078 100.412 54.6887V56.543C100.412 57.3785 100.131 57.5998 99.97 57.7562C99.4896 58.1759 99.0669 58.3323 98.4251 58.3323C97.5027 58.3361 96.8801 57.7371 96.8801 56.7604ZM95.3774 57.161C95.3774 58.6337 96.4612 59.1145 97.7256 59.1145C98.7479 59.1145 99.751 58.7367 100.435 57.9012C100.573 58.6375 100.996 59.1145 101.738 59.1145C102.66 59.1145 103.383 58.4163 103.444 57.4815H103.102C103.002 57.8211 102.802 58.3781 102.399 58.3781C101.976 58.3781 101.976 58.0576 101.976 57.4624V52.7201C101.976 51.9227 101.976 50.7666 99.2475 50.7666C96.8609 50.7666 96.0384 51.9608 96.0384 52.6781C96.0384 53.2351 96.3382 53.6357 96.8801 53.6357C97.3797 53.6357 97.7025 53.2962 97.7025 52.8002C97.7025 52.1439 97.0992 52.0448 97.0992 51.8845C97.0992 51.3084 98.525 51.1672 98.9631 51.1672C99.6664 51.1672 100.408 51.4458 100.408 52.3805V54.2729C97.3413 54.2729 95.4389 55.3068 95.3774 57.161ZM102.949 39.5688H101.765V31.9383C101.042 32.1176 100.262 32.1367 99.5165 32.1367H98.8555V32.5945H100.201V39.565H98.8555V40.0228H102.949V39.5688ZM101.984 28.0581C101.984 27.5393 101.442 27.1005 100.962 27.1005C100.462 27.1005 99.9969 27.5393 99.9969 28.0581C99.9969 28.6342 100.377 29.115 100.962 29.115C101.542 29.1111 101.984 28.6724 101.984 28.0581ZM94.2667 38.5501C94.2667 39.5078 94.4281 40.2823 95.8732 40.2823C96.6764 40.2823 97.6603 39.8244 98.0408 39.069L97.7179 38.8515C97.3989 39.2293 97.1145 39.5879 96.5957 39.5879C95.8347 39.5879 95.8347 39.0499 95.8347 38.6913V32.5945H97.5988V32.1367H95.8347V29.6071C95.3351 29.6873 94.8317 29.6873 94.309 29.6873V32.1367H93.1253V32.5945H94.2706V38.5501H94.2667ZM86.4227 55.4861H86.0422V58.9122H86.3228L87.1837 58.0347C88.0061 58.8512 89.1283 59.1488 90.2544 59.1488C92.8832 59.1488 94.6088 57.4548 94.6088 54.7269C94.6088 49.3092 87.0069 51.4419 87.0069 48.1341C87.0069 46.6385 88.4904 45.7038 89.8547 45.7038C91.6418 45.7038 92.8255 46.9971 93.2636 48.653H93.6633V45.5473H93.3828L92.6218 46.1234C92.2221 45.8259 90.9154 45.2459 89.9931 45.2459C88.4673 45.2459 87.4873 45.8831 86.8839 46.6614C86.3036 47.4168 86.0614 48.115 86.0614 48.9315C86.0614 50.0456 86.5226 51.2626 87.6871 51.9799C87.9869 52.1783 91.0961 53.1931 91.8416 53.4755C93.3866 54.0936 93.6672 54.6315 93.6672 55.8066C93.6672 57.5578 92.0223 58.6948 90.2967 58.6948C88.3482 58.6948 86.9646 57.2984 86.4227 55.4861ZM84.3935 32.1367H83.9707V32.5945H85.0737V39.565H83.9707V40.0228H87.7217V39.565H86.6379V35.8642C86.6379 34.3686 87.6794 32.5182 89.0438 32.5182C89.847 32.5182 90.3082 32.7357 90.3082 34.1931V39.5726H89.2667V40.0305H92.9562V39.5726H91.8724V33.9298C91.8724 32.0985 90.2083 31.9383 89.4858 31.9383C88.0215 31.9383 87.2375 32.7967 86.6764 34.0481H86.6379V31.9383C86.2767 32.0184 85.8962 32.0794 85.5157 32.0985C85.1544 32.1367 84.774 32.1367 84.3935 32.1367ZM79.6048 39.8855C77.5795 39.8855 77.5603 37.7756 77.5603 36.1007C77.5603 34.4487 77.5795 32.3351 79.6048 32.3351C81.6302 32.3351 81.6494 34.4449 81.6494 36.1007C81.6494 37.7756 81.6302 39.8855 79.6048 39.8855ZM79.6048 40.2861C81.7109 40.2861 83.4788 38.512 83.4788 36.1045C83.4788 33.6933 81.7148 31.9421 79.6048 31.9421C77.4988 31.9421 75.7347 33.6933 75.7347 36.1045C75.7347 38.512 77.4988 40.2861 79.6048 40.2861ZM76.4803 53.7349C76.4995 53.2351 76.561 52.7773 76.6802 52.4186C76.7186 52.2813 77.2605 51.1634 78.4673 51.1634C79.4703 51.1634 80.312 51.6213 80.312 53.0558V53.7349H76.4803ZM74.5741 55.2687C74.5741 57.4777 76.5418 59.1145 78.5864 59.1145C80.3504 59.1145 81.7148 58.2369 82.1183 56.3865H81.6763C81.3958 57.699 80.0507 58.6986 78.9092 58.6986C76.7224 58.6986 76.4611 57.1038 76.4611 55.1313V54.3148H82.1375C82.1183 52.144 80.5733 50.7705 78.5249 50.7705C76.1421 50.7666 74.5741 52.9184 74.5741 55.2687ZM67.1029 54.6086C67.1029 53.1931 67.1644 51.1634 69.0283 51.1634C70.8731 51.1634 71.315 52.9566 71.3957 53.2542C71.5149 53.651 71.5341 54.5705 71.5341 55.0054C71.5341 57.0771 71.2728 57.4739 70.5118 58.153C70.2505 58.3705 69.6509 58.691 69.1282 58.691C67.4833 58.6948 67.1029 57.6761 67.1029 54.6086ZM65.2773 54.91C65.2773 57.1801 66.7839 59.1145 68.8093 59.1145C69.9545 59.1145 70.8769 58.6375 71.438 57.6799H71.4764V59.0153C72.3604 58.8741 73.2405 58.855 74.1244 58.855V58.3972H73.0214V45.5054C72.2989 45.6465 71.5149 45.6847 70.7731 45.6847H70.1121V46.1425H71.4572V52.2813H71.4188C70.8154 51.068 69.6548 50.7666 69.0129 50.7666C66.6225 50.7666 65.2773 52.6781 65.2773 54.91ZM69.6125 27.1768H70.1736C72.8831 27.1768 74.1667 27.3943 74.1667 30.1832C74.1667 32.3961 73.5633 33.5712 70.2927 33.5712H69.6125V27.1768ZM67.6678 27.1768V39.565H65.9422V40.0228H71.3996V39.565H69.6125V34.029H70.5771C74.7893 34.029 76.2958 31.8963 76.2958 30.2634C76.2958 28.5121 75.1313 26.719 71.4226 26.719H66.119V27.1768H67.6678ZM76.3343 8.35225H77.8792V7.89442H74.2474V8.35225H75.7924V16.2613C75.7924 18.7908 75.4119 20.8435 72.4027 20.8435C69.9738 20.8435 69.6125 18.6916 69.6125 18.2338V8.35225H71.1767V7.89442H66.1228V8.35225H67.6678V17.8523C67.6678 20.0842 69.3319 21.4959 71.9223 21.4959C74.9507 21.4959 76.3343 20.0003 76.3343 16.8756V8.35225ZM90.9346 9.22976C90.9346 8.71088 90.3928 8.27213 89.9123 8.27213C89.4127 8.27213 88.9477 8.71088 88.9477 9.22976C88.9477 9.80587 89.3282 10.2866 89.9123 10.2866C90.4965 10.2866 90.9346 9.84784 90.9346 9.22976ZM88.0791 21.1983H91.8993V20.7404H90.7156V13.1099C89.9931 13.2892 89.2129 13.3083 88.4673 13.3083H87.8063V13.7661H89.1514V20.7366H88.0791H87.8063H85.7694V15.1053C85.7694 13.274 84.1053 13.1137 83.3827 13.1137C81.9185 13.1137 81.1344 13.9721 80.5733 15.2274H80.5349V13.1137C80.1736 13.1938 79.7932 13.2549 79.4127 13.274C79.0514 13.3159 78.6709 13.3159 78.2905 13.3159H77.8677V13.7738H78.9707V20.7443H77.8677V21.2021H81.6187V20.7443H80.5349V17.0396C80.5349 15.544 81.5764 13.6936 82.9408 13.6936C83.744 13.6936 84.2052 13.9111 84.2052 15.3647V20.7443H83.1637V21.2021H87.8063H88.0791V21.1983ZM99.0016 13.7699H99.9624V13.3121H97.2337V13.7699H98.4558L96.4304 19.4852H96.392L94.4473 13.7699H95.5119V13.3121H91.8993V13.7699H92.8639L95.5503 21.4577H96.2306L99.0016 13.7699ZM101.584 16.0782C101.603 15.5822 101.665 15.1205 101.784 14.7619C101.822 14.6246 102.364 13.5067 103.571 13.5067C104.574 13.5067 105.416 13.9645 105.416 15.3991V16.0782H101.584ZM101.565 16.6581H107.241C107.222 14.4872 105.677 13.1137 103.629 13.1137C101.242 13.1137 99.678 15.2655 99.678 17.6157C99.678 19.8248 101.646 21.4615 103.69 21.4615C105.454 21.4615 106.819 20.584 107.222 18.7336H106.78C106.5 20.0499 105.155 21.0457 104.013 21.0457C101.826 21.0457 101.565 19.4509 101.565 17.4822V16.6581ZM114.155 14.2278C114.155 13.4723 113.613 13.1137 112.933 13.1137C111.83 13.1137 111.027 14.0904 110.666 14.987H110.627V13.1137C109.905 13.293 109.121 13.3121 108.379 13.3121H107.756V13.7699H109.121V20.7404H107.756V21.1983H112.23V20.7404H110.685V16.9557C110.685 16.1583 110.904 15.3838 111.185 14.8039C111.627 13.9073 112.307 13.6288 112.33 13.6288C112.391 13.6288 112.51 13.6288 112.51 13.747C112.51 13.8272 112.43 14.0065 112.43 14.1667C112.43 14.5635 112.852 14.9641 113.214 14.9641C113.637 14.9641 114.155 14.7238 114.155 14.2278ZM121.031 18.7298C121.031 17.4746 120.489 16.7764 118.944 16.4597C115.873 15.8416 115.716 15.544 115.716 14.9641C115.716 14.7238 115.958 13.4685 117.603 13.5105C118.806 13.5715 119.49 14.388 119.79 15.5402H120.231V13.3083H119.889L119.524 13.8501C118.902 13.3503 118.279 13.1137 117.66 13.1137C115.474 13.1137 114.951 14.7276 114.951 15.5631C114.951 17.2952 116.115 17.4746 117.437 17.795C119.102 18.2147 120.205 18.5734 120.205 19.3479C120.205 20.3818 119.159 21.0609 118.26 21.0609C116.776 21.0609 115.793 20.0041 115.412 18.5734H114.951V21.2021H115.393L115.835 20.4848C116.415 21.122 117.299 21.4615 118.141 21.4615C119.728 21.4577 121.031 20.4428 121.031 18.7298ZM116.192 38.7295C116.073 38.4509 115.77 37.5353 115.77 36.3411C115.77 33.7314 116.269 32.3389 118.198 32.3389C118.64 32.3389 119.905 32.5563 119.905 33.0943C119.905 33.3156 119.263 33.4148 119.263 34.1893C119.263 34.7692 119.663 35.124 120.205 35.124C120.766 35.124 121.108 34.6051 121.108 34.0672C121.108 32.5334 119.263 31.9344 117.956 31.9344C116.811 31.9344 113.944 32.7929 113.944 36.3373C113.944 37.7108 114.886 40.2823 117.995 40.2823C120.082 40.2021 120.885 38.966 121.346 37.5543H120.923C120.443 38.9889 119.317 39.9236 118.156 39.8664C117.118 39.8054 116.496 39.3895 116.192 38.7295ZM124.986 9.22976C124.986 8.71088 124.444 8.27213 123.963 8.27213C123.464 8.27213 122.999 8.71088 122.999 9.22976C122.999 9.80587 123.379 10.2866 123.963 10.2866C124.544 10.2866 124.986 9.84784 124.986 9.22976ZM121.857 21.1983H125.95V20.7404H124.766V13.1099C124.044 13.2892 123.26 13.3083 122.518 13.3083H121.857V13.7661H123.202V20.7366H121.857V21.1983ZM124.075 27.1005C123.575 27.1005 123.11 27.5393 123.11 28.0581C123.11 28.6342 123.491 29.115 124.075 29.115C124.655 29.115 125.097 28.6762 125.097 28.0581C125.097 27.5393 124.555 27.1005 124.075 27.1005ZM121.969 40.0266H126.062V39.5688H124.878V31.9383C124.155 32.1176 123.375 32.1367 122.63 32.1367H121.969V32.5945H123.314V39.565H121.969V40.0266ZM128.026 50.7666C126.723 50.7666 125.9 51.545 125.258 52.6399H125.22C125.101 51.4458 124.217 50.7666 123.072 50.7666C121.607 50.7666 121.065 51.545 120.362 52.659H120.324V50.7666C119.601 50.946 118.817 50.965 118.075 50.965H117.753V51.4229H118.756V58.3934H117.753V58.8512H121.446V58.3934H120.324V54.6277C120.324 53.113 121.327 51.3427 122.572 51.3427C123.214 51.3427 123.694 51.8006 123.694 52.7353V58.3934H122.63V58.8512H126.323V58.3934H125.258V54.2118C125.258 53.1168 126.261 51.3427 127.507 51.3427C128.148 51.3427 128.629 51.8006 128.629 52.7353V58.3934H127.507V58.8512H131.196V58.3934H130.193V53.094C130.189 51.0452 128.767 50.7666 128.026 50.7666ZM132.876 17.3525C132.876 19.4242 132.614 19.821 131.853 20.5001C131.592 20.7175 130.992 21.038 130.47 21.038C128.825 21.038 128.444 20.0232 128.444 16.9557C128.444 15.5402 128.506 13.5105 130.37 13.5105C132.215 13.5105 132.657 15.3037 132.737 15.6013C132.856 15.9981 132.876 16.9175 132.876 17.3525ZM132.818 21.3585C133.702 21.2173 134.582 21.1983 135.466 21.1983V20.7404H134.363V7.84863C133.64 7.9898 132.86 8.02795 132.115 8.02795H131.454V8.48578H132.799V14.6246H132.76C132.157 13.4113 130.996 13.1099 130.354 13.1099C127.968 13.1099 126.623 15.0213 126.623 17.2533C126.623 19.5234 128.125 21.4577 130.155 21.4577C131.296 21.4577 132.222 20.9808 132.783 20.0232H132.822V21.3585H132.818ZM136.899 56.543C136.899 57.3785 136.619 57.5998 136.458 57.7562C135.977 58.1759 135.554 58.3323 134.913 58.3323C133.99 58.3323 133.368 57.7333 133.368 56.7604C133.368 54.9291 135.593 54.7078 136.899 54.6887V56.543ZM135.739 50.7666C133.352 50.7666 132.53 51.9608 132.53 52.6781C132.53 53.2351 132.83 53.6357 133.371 53.6357C133.871 53.6357 134.194 53.2962 134.194 52.8002C134.194 52.1439 133.59 52.0448 133.59 51.8845C133.59 51.3084 135.016 51.1672 135.454 51.1672C136.158 51.1672 136.899 51.4458 136.899 52.3805V54.2729C133.829 54.2729 131.923 55.3106 131.865 57.161C131.865 58.6337 132.949 59.1145 134.213 59.1145C135.235 59.1145 136.238 58.7367 136.923 57.9012C137.065 58.6375 137.484 59.1145 138.225 59.1145C139.148 59.1145 139.87 58.4163 139.932 57.4815H139.59C139.49 57.8211 139.29 58.3781 138.886 58.3781C138.464 58.3781 138.464 58.0576 138.464 57.4624V52.7201C138.468 51.9227 138.468 50.7666 135.739 50.7666ZM141.288 18.8862C141.288 19.7218 141.008 19.943 140.846 20.0995C140.366 20.5192 139.943 20.6756 139.302 20.6756C138.379 20.6756 137.757 20.0766 137.757 19.1037C137.757 17.2724 139.982 17.0511 141.288 17.032V18.8862ZM144.317 19.8248H143.975C143.875 20.1643 143.675 20.7214 143.272 20.7214C142.849 20.7214 142.849 20.4047 142.849 19.8057V15.0633C142.849 14.2659 142.849 13.1099 140.12 13.1099C137.733 13.1099 136.911 14.3041 136.911 15.0213C136.911 15.5784 137.211 15.979 137.753 15.979C138.256 15.979 138.575 15.6394 138.575 15.1434C138.575 14.4872 137.972 14.388 137.972 14.2278C137.972 13.6517 139.398 13.5105 139.836 13.5105C140.539 13.5105 141.281 13.789 141.281 14.7238V16.6161C138.21 16.6161 136.304 17.6501 136.246 19.5043C136.246 20.977 137.33 21.4577 138.594 21.4577C139.617 21.4577 140.62 21.08 141.304 20.2445C141.446 20.9808 141.865 21.4577 142.607 21.4577C143.537 21.4577 144.259 20.7595 144.317 19.8248ZM150.962 17.3525C150.962 19.4242 150.7 19.821 149.94 20.5001C149.678 20.7175 149.079 21.038 148.556 21.038C146.911 21.038 146.531 20.0232 146.531 16.9557C146.531 15.5402 146.592 13.5105 148.456 13.5105C150.301 13.5105 150.743 15.3037 150.823 15.6013C150.943 15.9981 150.962 16.9175 150.962 17.3525ZM150.904 21.3585C151.788 21.2173 152.668 21.1983 153.552 21.1983V20.7404H152.449V7.84863C151.727 7.9898 150.943 8.02795 150.201 8.02795H149.54V8.48578H150.885V14.6246H150.847C150.243 13.4113 149.082 13.1099 148.441 13.1099C146.054 13.1099 144.709 15.0213 144.709 17.2533C144.709 19.5234 146.212 21.4577 148.241 21.4577C149.386 21.4577 150.308 20.9808 150.87 20.0232H150.908V21.3585H150.904ZM151.884 57.5578C151.765 57.2793 151.461 56.3636 151.461 55.1656C151.461 52.556 151.961 51.1634 153.89 51.1634C154.332 51.1634 155.597 51.3847 155.597 51.9188C155.597 52.1363 154.955 52.2393 154.955 53.0138C154.955 53.5899 155.355 53.9486 155.897 53.9486C156.458 53.9486 156.8 53.4297 156.8 52.8917C156.8 51.358 154.955 50.759 153.648 50.759C152.503 50.759 149.636 51.6136 149.636 55.1618C149.636 56.5353 150.578 59.1068 153.687 59.1068C155.774 59.0267 156.577 57.7906 157.038 56.3789H156.615C156.135 57.8134 155.009 58.7482 153.848 58.691C152.807 58.6337 152.184 58.2141 151.884 57.5578ZM162.972 56.543C162.972 57.3785 162.691 57.5998 162.53 57.7562C162.049 58.1759 161.627 58.3323 160.985 58.3323C160.063 58.3323 159.44 57.7333 159.44 56.7604C159.44 54.9291 161.665 54.7078 162.972 54.6887V56.543ZM166 57.4777H165.658C165.558 57.8173 165.359 58.3743 164.955 58.3743C164.532 58.3743 164.532 58.0538 164.532 57.4586V52.7162C164.532 51.9188 164.532 50.7628 161.804 50.7628C159.417 50.7628 158.594 51.957 158.594 52.6743C158.594 53.2313 158.894 53.6319 159.436 53.6319C159.936 53.6319 160.259 53.2923 160.259 52.7964C160.259 52.1401 159.655 52.0409 159.655 51.8807C159.655 51.3046 161.081 51.1634 161.519 51.1634C162.222 51.1634 162.964 51.4419 162.964 52.3767V54.2691C159.893 54.2691 157.987 55.3068 157.93 57.1572C157.93 58.6299 159.013 59.1106 160.278 59.1106C161.3 59.1106 162.303 58.7329 162.987 57.8974C163.126 58.6337 163.548 59.1106 164.29 59.1106C165.22 59.1106 165.943 58.4163 166 57.4777Z" fill="#545759"/>
<path d="M53.7826 49.9305C53.8864 49.9305 53.9902 49.9267 54.0901 49.9152C54.3015 49.8923 54.5129 49.8427 54.7127 49.774C55.5044 49.4955 56.1616 48.866 56.4345 48.0114L58.0832 42.7234C58.3638 41.8497 58.187 40.9417 57.6835 40.2549C57.5644 40.9455 57.426 41.6323 57.2684 42.3152V42.319V42.3228C57.0609 43.166 56.3038 43.7574 55.4275 43.7574C55.2738 43.7574 55.1239 43.7383 54.974 43.7039C53.9594 43.456 53.3368 42.4373 53.5828 41.4339C53.725 40.8043 53.8518 40.1672 53.9594 39.53C53.4137 39.8658 52.9794 40.3847 52.768 41.0409L51.1193 46.3289C50.9041 47.0003 50.9579 47.6947 51.2231 48.2899C51.3038 48.4769 51.4075 48.6524 51.5305 48.8126C51.8649 49.2666 52.3453 49.6214 52.9256 49.8084C53.2139 49.8885 53.4983 49.9305 53.7826 49.9305ZM54.9702 33.4943V33.5019C54.9702 35.2798 54.8434 37.0196 54.5974 38.7136C54.5705 38.8967 54.5436 39.0798 54.5129 39.2592C54.3899 40.0298 54.2438 40.7891 54.0747 41.5369C53.8903 42.2808 54.3476 43.0286 55.097 43.2118C55.2085 43.2385 55.3199 43.2537 55.4314 43.2537C56.0578 43.2537 56.6266 42.8302 56.7842 42.2007C56.9648 41.4072 57.1224 40.6021 57.2569 39.7857C57.2877 39.5987 57.3146 39.408 57.3453 39.221C57.6182 37.363 57.7604 35.4515 57.7604 33.5057V33.4981C57.7604 31.5523 57.6182 29.6409 57.3453 27.7866C57.3184 27.5997 57.2877 27.4089 57.2569 27.222C57.1224 26.4055 56.9648 25.5967 56.7842 24.7993C56.6266 24.1698 56.0578 23.7463 55.4314 23.7463C55.3199 23.7463 55.2085 23.7577 55.097 23.7844C54.3476 23.9675 53.8903 24.7153 54.0747 25.4593C54.2438 26.2109 54.3937 26.974 54.5167 27.7447C54.5475 27.9278 54.5744 28.1071 54.6013 28.2902C54.8434 29.9804 54.9702 31.7202 54.9702 33.4943ZM48.4252 15.4023C48.1293 15.0551 48.1639 14.5324 48.5021 14.2272L48.5866 14.1432C48.3752 13.838 48.1562 13.5404 47.9333 13.2466L47.7872 13.3916C46.9994 14.0974 46.9187 15.3259 47.6104 16.131L49.3975 18.2179C49.5935 18.4468 49.5705 18.7978 49.3476 19.0001C49.1247 19.2023 48.7788 19.1794 48.5828 18.9466L45.0854 14.9139C44.6435 14.3988 44.0209 14.1432 43.3983 14.1585C42.4528 14.1585 41.8341 14.6506 41.3229 15.6312L39.8587 18.5956C39.7318 19.0344 39.2784 19.2862 38.8479 19.1527C38.2753 18.9772 37.6719 19.3091 37.4989 19.8966L40.8733 20.9306L42.4759 18.5079C42.8679 18.9009 43.406 19.145 43.9978 19.145C44.5974 19.145 45.0816 19.641 45.0816 20.2553C45.0816 21.48 46.0539 22.4758 47.2492 22.4758C47.6988 22.4758 48.0601 22.8497 48.0601 23.3075C48.0601 23.7653 47.695 24.1392 47.2492 24.1392C46.6496 24.1392 46.1654 24.6352 46.1654 25.2495H49.4168V22.4758L48.0755 19.9539C48.6712 20.3697 49.4936 20.3392 50.0624 19.828C50.7388 19.2213 50.8042 18.1721 50.2123 17.4816L48.4252 15.4023ZM42.5143 10.9498C42.2453 11.0605 41.9379 10.9269 41.8302 10.6522L42.8064 10.2478C42.914 10.5225 42.7834 10.8392 42.5143 10.9498ZM46.6074 15.9135C46.5267 14.6735 46.3114 12.7392 45.758 11.9075L46.2346 11.7472C46.2346 11.7472 45.8695 11.0643 45.1815 10.7285L45.6081 10.5569C45.6081 10.5569 44.4705 9.38557 42.4336 9.43135C41.2384 9.45806 41.0539 10.1639 41.0539 10.1639H39.5897C39.4897 10.1639 39.4052 10.2478 39.4052 10.3508V11.1597H40.8425C41.0155 11.1597 41.1577 11.3047 41.1577 11.484C41.1577 11.6633 41.0155 11.8083 40.8425 11.8083H39.4052V12.1326C39.4052 12.289 39.5282 12.4149 39.678 12.4149H40.5005C40.954 12.4149 41.3229 12.7659 41.3229 13.2581V14.6888C41.7495 14.147 42.3837 13.6701 43.3829 13.6663C43.4021 13.6663 43.4252 13.6663 43.4444 13.6663C44.2169 13.6663 44.9509 14.0059 45.4582 14.5972L46.6074 15.9135ZM38.6519 14.0593C38.7211 13.4488 38.2945 12.8994 37.6988 12.8308L37.2953 16.4133L39.8087 17.5655C39.8087 17.5655 40.8771 15.3984 40.8848 15.3908L39.3667 14.9826C38.9209 14.9292 38.6019 14.5171 38.6519 14.0593ZM36.8802 8.02352L35.2507 7.07352L35.7118 6.32572L34.6281 5.69239L31.8609 10.3661C32.1492 10.6408 32.449 10.9575 32.7487 11.3275L33.648 9.80906L35.2776 10.7591L35.9079 9.70605L35.0931 9.22914C34.9432 9.14139 34.8932 8.95063 34.9816 8.80183C35.07 8.65304 35.2622 8.60344 35.4121 8.69119L36.2268 9.1681L36.8802 8.02352ZM29.6127 9.38557V7.39781H30.7925V6.45926H29.6127V5.21929H28.6672V6.45926H27.4682V7.39781H28.6672V9.38557C28.6672 9.38557 26.6764 10.2059 25.1046 12.8117C25.3006 12.9147 25.5273 12.9719 25.7656 12.9719C26.5573 12.9719 27.203 12.331 27.203 11.545H27.7064C27.7064 12.331 28.3521 12.9719 29.1438 12.9719C29.9355 12.9719 30.5812 12.331 30.5812 11.545H31.0846C31.0846 12.331 31.7303 12.9719 32.522 12.9719C32.7603 12.9719 32.9832 12.9147 33.183 12.8117C31.5996 10.2059 29.6127 9.38557 29.6127 9.38557ZM22.5066 6.32572L22.9677 7.07352L21.3382 8.02352L21.9954 9.1681L22.8102 8.69119C22.9601 8.60344 23.1522 8.65304 23.2406 8.80183C23.329 8.95063 23.279 9.14139 23.1292 9.22914L22.3144 9.70605L22.9447 10.7591L24.5742 9.80906L25.4966 11.3695C25.7925 10.9994 26.0923 10.6789 26.3805 10.4004L23.5903 5.69239L22.5066 6.32572ZM17.9908 9.93878V10.8468H17.299V9.93878H16.0461V11.7549H19.2437V9.93878H17.9908ZM20.6733 12.3539H13.8209H10.9923C10.6695 12.7468 10.3543 13.1512 10.0507 13.5671H13.8247H19.9777L20.6733 12.3539ZM14.1668 9.43135V10.45H13.475V9.70605C13.0676 10.0876 12.6718 10.4844 12.2836 10.8888V11.7587H15.3582V9.43135H14.1668ZM7.36429 30.7664C7.43347 30.1559 7.00687 29.6065 6.41117 29.5378L6.00764 33.1204L8.5211 34.2688C8.5211 34.2688 9.58951 32.1055 9.5972 32.0941L8.07913 31.6858C7.63332 31.6362 7.31433 31.2204 7.36429 30.7664ZM13.3021 54.5584L12.8101 54.6576C12.6987 54.1158 12.2567 53.6923 11.711 53.6046C10.9961 53.4863 10.4158 52.9598 10.2275 52.2654L9.60489 49.0644L10.0968 48.969L10.7117 52.1433C10.8501 52.6469 11.2728 53.0247 11.7917 53.1124C12.5411 53.2345 13.1483 53.8182 13.3021 54.5584ZM14.7048 58.3775L14.4089 56.2409L14.9047 56.1723L15.2275 58.5034C15.2583 58.4958 16.4074 58.4767 16.4074 58.4767C16.7187 58.4767 16.9416 58.305 16.8955 58.0036C16.8955 58.0036 16.3536 54.4058 16.3497 54.3905C16.2383 53.8945 15.8386 53.4901 15.3044 53.4024C14.7971 53.3184 14.4127 52.9522 14.2782 52.4943C14.2744 52.4791 13.4519 48.1144 13.4519 48.1144C13.3712 47.6375 13.156 47.214 12.8562 46.8783C12.691 47.0995 12.4719 47.2789 12.2067 47.4086L12.5104 49.175L12.0146 49.259L11.7263 47.5803C11.5726 47.6184 11.4189 47.6337 11.269 47.6375C10.1506 47.6642 9.54724 46.5425 9.52418 46.5272C8.86699 47.0423 8.55953 47.9046 8.57875 48.8546C8.57875 48.8622 8.60949 49.9953 8.64408 51.3383C9.27437 52.3646 9.9623 53.349 10.6964 54.2761C11.907 55.806 13.2559 57.1833 14.7048 58.3775ZM11.5265 40.0222C11.5226 40.4839 11.1575 40.8539 10.7117 40.8539C10.1122 40.8539 9.62794 41.3499 9.62794 41.9642H12.8793L13.3943 40.0222V40.0184C13.3021 39.9612 13.2214 39.8849 13.156 39.7895C12.8908 39.4118 12.9715 38.9005 13.3405 38.6449L13.6941 38.4007C13.4404 37.9849 13.2944 37.4965 13.2944 36.97C13.2944 36.6342 13.033 36.3595 12.714 36.3595C12.5565 36.3595 12.4027 36.3443 12.249 36.3176L11.9685 36.516C10.2044 37.7521 10.3428 39.3126 11.5265 40.0222ZM12.1414 45.3216C12.1875 45.4475 12.126 45.5887 11.9992 45.6383L11.4535 45.8596L11.2652 45.3979L11.588 45.2682L11.2536 44.3487C11.2306 44.2877 11.2344 44.219 11.2613 44.158C11.2882 44.0969 11.342 44.0511 11.4035 44.0282L12.1683 43.7535L12.0953 43.6086C12.0953 43.6086 12.0453 43.4979 11.9262 43.372C11.9108 43.3568 11.7609 42.8951 11.4996 42.8112C10.6541 42.5365 9.8816 42.8417 9.37814 43.3453C8.61718 44.1122 9.47806 45.8748 9.64332 46.0427C9.73171 46.1266 9.83548 46.1877 9.91619 46.222C10.6695 47.4582 11.5726 47.1186 11.7456 47.0652C12.3566 46.8668 12.6218 46.4433 12.7025 45.9626C12.8601 45.0355 12.3951 44.2076 12.3951 44.2076L11.8109 44.4174L12.1414 45.3216ZM6.20748 36.6114L9.58183 37.6453L11.1883 35.2264C11.5803 35.6194 12.1183 35.8636 12.7102 35.8636C13.3097 35.8636 13.794 36.3595 13.794 36.9738C13.794 38.1985 14.7625 39.1943 15.9616 39.1943C16.4112 39.1943 16.7763 39.5682 16.7763 40.026C16.7763 40.4839 16.4112 40.8577 15.9616 40.8577C15.362 40.8577 14.8778 41.3537 14.8778 41.968H18.1291V39.1943L16.784 36.6724C17.3836 37.0883 18.2022 37.0577 18.771 36.5465C19.4474 35.9399 19.5127 34.8907 18.9208 34.2001L17.1337 32.1131C16.8378 31.766 16.8724 31.2394 17.2106 30.938L17.3566 30.7892L16.6418 29.9537L16.4958 30.0987C15.7079 30.8045 15.6272 32.033 16.319 32.8381L18.1061 34.925C18.3021 35.1539 18.279 35.5049 18.0561 35.7071C17.8294 35.9093 17.4873 35.8865 17.2913 35.6537L13.794 31.621C13.352 31.1059 12.7294 30.8503 12.1068 30.8656C11.1614 30.8656 10.5426 31.3577 10.0315 32.3382L8.56722 35.3027C8.43655 35.7415 7.98689 35.9933 7.55645 35.8597C6.98381 35.6919 6.38043 36.0238 6.20748 36.6114ZM17.1722 44.2572L17.4643 45.0546C17.5065 45.1766 17.4527 45.3102 17.3336 45.3636L16.8071 45.6116L16.5919 45.1614L16.9147 45.0088L16.6149 44.1885C16.5919 44.1274 16.5957 44.0588 16.6226 43.9977C16.6495 43.9367 16.7033 43.8909 16.7648 43.868L17.4489 43.6238C17.4489 43.6238 17.349 43.4025 17.2414 43.3033C17.2414 43.3033 17.0838 42.8913 16.8686 42.8035C16.7379 42.7501 15.7963 42.4335 14.9393 43.2766C14.2321 43.971 15.0277 45.562 15.1814 45.7108C15.2621 45.7871 15.3543 45.8405 15.4274 45.8748C15.9347 46.7409 16.6111 46.8019 17.0799 46.6341C17.6334 46.4548 17.8716 46.0694 17.9447 45.6383C18.0869 44.7684 17.6756 44.074 17.6756 44.074L17.1722 44.2572ZM18.1099 29.4882C18.1791 29.328 18.2752 29.1792 18.402 29.0533C18.6595 28.7939 19.0015 28.6527 19.3628 28.6565L19.3667 28.0995C18.8593 28.0957 18.3828 28.2941 18.0215 28.6565C17.9024 28.7786 17.8025 28.9121 17.7179 29.0533C17.7218 28.7023 17.8563 28.3513 18.1215 28.0842L17.741 27.6874C16.9954 28.439 16.9839 29.6714 17.7179 30.4344L18.0023 30.1483C18.3213 29.9079 18.7748 29.9346 19.063 30.2322L19.4512 29.8431C19.0938 29.4692 18.5711 29.3509 18.1099 29.4882ZM11.2267 27.6569C10.9577 27.7676 10.6502 27.634 10.5426 27.3593L11.5188 26.9549C11.6264 27.2296 11.4957 27.5425 11.2267 27.6569ZM15.3197 32.6206C15.239 31.3806 15.0238 29.4463 14.4704 28.6145L14.947 28.4543C14.947 28.4543 14.5818 27.7714 13.8939 27.4356L14.3205 27.2639C14.3205 27.2639 13.1829 26.0926 11.146 26.1384C9.95078 26.1651 9.7663 26.871 9.7663 26.871H8.30204C8.20211 26.871 8.11756 26.9549 8.11756 27.0579V27.8668H9.55492C9.72787 27.8668 9.87007 28.0117 9.87007 28.191C9.87007 28.3704 9.72787 28.5153 9.55492 28.5153H8.11756V28.8396C8.11756 28.9961 8.24054 29.122 8.39043 29.122H9.21288C9.66638 29.122 10.0353 29.473 10.0353 29.9652V31.3959C10.4619 30.8541 11.0961 30.3772 12.0953 30.3734C12.1145 30.3734 12.1376 30.3734 12.1568 30.3734C12.9293 30.3734 13.6633 30.7129 14.1706 31.3043L15.3197 32.6206ZM13.8209 24.0438H7.51418V25.2571H13.8209H20.1276V24.0438H13.8209ZM10.7655 16.1195C10.7655 15.9478 10.9077 15.8105 11.0768 15.8105C11.2498 15.8105 11.3881 15.9478 11.3881 16.1195V18.0195H10.7655V16.1195ZM16.246 16.1195C16.246 15.9478 16.3882 15.8105 16.5573 15.8105C16.7302 15.8105 16.8686 15.9478 16.8686 16.1195V18.0195H16.246V16.1195ZM8.1829 16.4286L7.51418 23.4067H12.6602V20.5643C12.6602 19.9195 13.1791 19.4007 13.8209 19.4007C14.4627 19.4007 14.9815 19.9234 14.9815 20.5643V23.4067H20.1276L19.2437 14.1966H13.8209H9.59336C9.09758 14.9101 8.62487 15.6579 8.1829 16.4286ZM18.5058 53.4024L18.0138 53.5016C17.9139 53.0247 17.5258 52.6469 17.0415 52.5668C16.3882 52.4562 15.854 51.9755 15.681 51.3421L15.6772 51.323L15.1199 48.4463L15.6118 48.3509L16.1691 51.2162C16.2921 51.6588 16.6649 51.9945 17.1222 52.0708C17.8102 52.1929 18.3674 52.7233 18.5058 53.4024ZM20.289 52.3684C19.8278 52.2921 19.4743 51.9564 19.359 51.5367C19.359 51.5291 18.6172 47.5955 18.6172 47.5955C18.548 47.1835 18.3674 46.8134 18.1099 46.5158C17.96 46.7142 17.7602 46.8783 17.5219 46.9965L17.7871 48.5493L17.2913 48.6333L17.0415 47.1644C16.907 47.1949 16.7725 47.2102 16.6418 47.2102C15.5734 47.2102 15.0469 46.1915 15.02 46.1724C13.8094 47.1262 14.136 49.0453 14.136 49.0453L14.7586 52.3532V52.357C14.8393 52.6355 15.0776 52.8492 15.362 52.9064C16 53.0285 16.5342 53.4558 16.7648 54.0586C16.8109 54.1807 16.834 54.2455 16.8493 54.3524L17.3874 57.9273C17.4028 58.0379 17.4028 58.1486 17.3797 58.2554H19.1745C19.5012 58.2554 19.774 58.0265 19.8394 57.7251L19.455 54.9323L19.9508 54.8636L20.3006 57.4046H21.6572C21.7648 57.4046 21.8494 57.3092 21.834 57.2024L21.2345 53.2765C21.1422 52.8224 20.7771 52.4485 20.289 52.3684ZM22.372 24.5398C22.5488 24.2422 22.937 24.143 23.2329 24.3185L24.8586 25.2686C25.1584 25.4441 25.2583 25.8294 25.0815 26.1232C24.9047 26.4208 24.5166 26.52 24.2206 26.3445L22.595 25.3945C22.2952 25.2228 22.1953 24.8374 22.372 24.5398ZM22.1146 26.2033L22.3874 26.3635C22.2106 26.6611 22.3106 27.0427 22.6103 27.2182C22.9101 27.3937 23.2944 27.2945 23.4712 26.9969L23.7441 27.1571C24.4897 27.5921 25.4581 27.3441 25.9001 26.6001C26.3382 25.8599 26.0884 24.8947 25.3429 24.4597L25.07 24.3033L26.6226 21.6822H25.1622L23.9862 23.67L23.7133 23.5097C22.9677 23.0748 21.9954 23.3228 21.5573 24.0667C21.1153 24.8069 21.369 25.7684 22.1146 26.2033ZM27.1338 34.7075L27.3759 35.8941H30.8425L31.0846 34.7075C31.1384 34.1658 30.9001 33.9826 30.708 33.8682C30.316 33.6354 29.1092 33.086 29.1092 33.086C29.1092 33.086 27.9024 33.6354 27.5104 33.8682C27.3183 33.9826 27.08 34.1658 27.1338 34.7075ZM27.9947 37.2027H29.0746C29.213 37.2027 29.3244 37.3134 29.3244 37.4507V38.664H29.6473V39.1638H29.0746C28.9363 39.1638 28.8248 39.0531 28.8248 38.9158V37.7025H27.9985V37.2027H27.9947ZM27.4067 36.3939C27.4067 36.3939 27.1299 37.6224 27.3106 38.4923C27.5911 39.8314 28.329 40.2168 29.1054 40.2168C29.8817 40.2168 30.6081 39.8429 30.904 38.4923C31.0923 37.6224 30.8079 36.3939 30.8079 36.3939H27.4067ZM31.1692 39.3164C31.1346 39.3927 30.6657 40.7128 29.1054 40.7128C27.5489 40.7128 27.08 39.4003 27.0454 39.3202C26.7187 39.4194 26.2729 39.614 25.8117 39.9764C26.123 41.1248 27.4835 41.9909 29.1092 41.9909C30.7387 41.9909 32.0992 41.121 32.4067 39.9688C31.9417 39.6102 31.492 39.4156 31.1692 39.3164ZM32.8141 40.3351C32.3375 41.5788 30.8579 42.4907 29.1092 42.4907C27.3644 42.4907 25.8847 41.5827 25.4082 40.3427C24.1553 41.6246 23.7325 43.7879 23.7902 46.6913H28.844C28.7441 46.2716 28.5404 45.974 28.2176 45.7833C27.4336 45.3216 26.246 45.6612 26.2345 45.665L26.0923 45.1881C26.1499 45.1728 27.5027 44.7799 28.4751 45.356C28.7441 45.5162 28.9555 45.7299 29.113 46.0007C29.2668 45.7299 29.482 45.5162 29.751 45.356C30.7234 44.7837 32.0762 45.1728 32.1338 45.1881L32.0608 45.4284L31.9916 45.6688C31.9801 45.665 30.7887 45.3254 30.0085 45.7871C29.6857 45.9778 29.482 46.2754 29.3821 46.6951H34.4359C34.4935 43.7803 34.0708 41.617 32.8141 40.3351ZM33.06 54.2455H29.359V57.9197H28.8594V54.2455H25.1584V53.7457H28.8594V50.0716H29.359V53.7457H33.06V54.2455ZM31.884 51.6168L30.389 53.101L30.0354 52.75L31.5304 51.2658L31.884 51.6168ZM28.2868 52.7996L27.9332 53.1506L26.3344 51.5634L26.688 51.2124L28.2868 52.7996ZM26.3306 56.4279L27.9293 54.8407L28.2829 55.1917L26.6841 56.7789L26.3306 56.4279ZM30.0354 55.2413L30.389 54.8903L31.884 56.3745L31.5304 56.7255L30.0354 55.2413ZM35.8233 47.2636H22.3951V60.743C24.5358 61.4221 26.7879 61.7807 29.1092 61.7807C31.4305 61.7807 33.6788 61.4221 35.8195 60.743L35.8233 47.2636ZM22.3913 46.6913H23.256V37.7903C24.4897 38.2367 25.7233 38.1031 26.7533 37.4965C26.7879 36.8593 26.907 36.3214 26.9147 36.2871L26.9263 36.2298L26.8801 35.9971L26.638 34.8105L26.6342 34.7838L26.6303 34.7571C26.5419 33.8605 27.0761 33.5439 27.2491 33.4409C27.6603 33.2005 29.1092 32.5405 29.1092 32.5405C29.1092 32.5405 30.5504 33.2005 30.9616 33.4409C31.1384 33.5439 31.6726 33.8567 31.5804 34.7571L31.5765 34.7838L31.5727 34.8105L31.3306 35.9971L31.2845 36.2336L31.296 36.2871C31.3037 36.3214 31.4228 36.8593 31.4574 37.4927C32.4874 38.1031 33.7249 38.2405 34.9624 37.7903V46.6913H35.8271V36.4587C35.8271 32.777 32.8179 29.7973 29.113 29.7973H29.1092C25.4005 29.7973 22.3951 32.7808 22.3951 36.4587V46.6913H22.3913ZM35.6273 25.3945L34.0016 26.3445C33.7018 26.52 33.3137 26.4208 33.1407 26.1232C32.9678 25.8256 33.0677 25.4402 33.3636 25.2686L34.9893 24.3185C35.2891 24.143 35.6773 24.2461 35.8502 24.5398C36.027 24.8374 35.9271 25.2228 35.6273 25.3945ZM35.8348 26.3635L36.1077 26.2033C36.8533 25.7684 37.1069 24.8031 36.665 24.0629C36.2268 23.3228 35.2583 23.071 34.5089 23.5059L34.2361 23.6661L33.06 21.6784H31.5996L33.1523 24.2995L32.8794 24.4559C32.1338 24.8908 31.8802 25.8561 32.3221 26.5963C32.7603 27.3364 33.7287 27.5882 34.4782 27.1533L34.751 26.9931C34.9278 27.2906 35.3122 27.3898 35.6119 27.2143C35.9117 27.0427 36.0116 26.6611 35.8348 26.3635ZM23.9401 17.4854C23.3905 17.0199 23.0446 16.3294 23.0446 15.5587C23.0446 14.6506 23.525 13.8533 24.2475 13.4069C24.3321 13.1856 24.4282 12.9681 24.5473 12.7697C24.6895 12.5255 24.8317 12.2966 24.9777 12.0792C23.3098 12.3729 22.0415 13.8227 22.0415 15.5587C22.0415 16.9894 22.9024 18.2256 24.1361 18.7788C24.0631 18.3744 23.9939 17.9356 23.9401 17.4854ZM25.7656 13.4679C25.4389 13.4679 25.1315 13.3878 24.8625 13.2466C24.4666 14.0669 24.3359 15.0856 24.3551 16.1233C25.0162 15.9974 25.5158 15.4175 25.5158 14.7231H26.0193C26.0193 15.5091 26.6649 16.15 27.4566 16.15C28.2483 16.15 28.894 15.5091 28.894 14.7231H29.3936C29.3936 15.5091 30.0393 16.15 30.831 16.15C31.6227 16.15 32.2683 15.5091 32.2683 14.7231H32.7718C32.7718 15.4175 33.2714 15.9936 33.9324 16.1233C33.9478 15.0894 33.8171 14.0669 33.4251 13.2466C33.1561 13.3878 32.8487 13.4679 32.522 13.4679C31.7995 13.4679 31.1692 13.0711 30.8348 12.4874C30.5004 13.0711 29.8702 13.4679 29.1476 13.4679C28.4251 13.4679 27.7948 13.0711 27.4605 12.4874C27.1184 13.0749 26.4881 13.4679 25.7656 13.4679ZM29.286 25.3372C30.3736 25.0358 31.0577 24.185 31.0692 23.1167C31.0731 22.5635 30.8502 22.079 30.5619 21.6784H29.2283C29.6242 22.0599 30.07 22.5635 30.0662 23.1091C30.0585 23.9942 29.3283 24.2918 29.017 24.3796C28.9593 24.3949 28.9017 24.4101 28.8363 24.4254C28.1868 24.5932 26.9762 24.9061 26.6188 26.3178C26.2729 27.6951 24.8548 27.8477 24.8394 27.8477L24.9355 28.8396C25.7272 28.7633 27.1761 28.1987 27.5911 26.5581C27.7871 25.7798 28.3598 25.5738 29.0861 25.3868C29.1592 25.3716 29.2245 25.3563 29.286 25.3372ZM30.8194 25.0053C30.5735 25.2647 30.2737 25.4746 29.9317 25.631C30.3006 25.8065 30.5773 26.0659 30.7003 26.5619C31.1154 28.2025 32.5643 28.7672 33.356 28.8435L33.452 27.8515C33.4367 27.8515 32.0224 27.6989 31.6726 26.3216C31.5189 25.6882 31.1922 25.28 30.8194 25.0053ZM28.575 23.979C28.3828 23.7844 28.2368 23.5059 28.233 23.1091C28.2291 22.5673 28.6749 22.0599 29.0708 21.6784H27.7372C27.4489 22.0828 27.2222 22.5635 27.2299 23.1167C27.2337 23.5746 27.3644 23.9904 27.595 24.3414C27.9447 24.1583 28.2983 24.0515 28.575 23.979ZM25.266 21.1824H29.1399H33.0139C33.0139 21.1824 33.2291 20.5529 33.452 19.6143C33.1753 19.7669 32.8563 19.8547 32.5181 19.8547C31.7956 19.8547 31.1653 19.4579 30.831 18.8742C30.4966 19.4579 29.8663 19.8547 29.1438 19.8547C28.4213 19.8547 27.791 19.4579 27.4566 18.8742C27.1223 19.4579 26.492 19.8547 25.7694 19.8547C25.4312 19.8547 25.1123 19.7669 24.8355 19.6143C25.0508 20.5529 25.266 21.1824 25.266 21.1824ZM24.6626 18.8436C24.9278 19.1565 25.3236 19.3549 25.7656 19.3549C26.5573 19.3549 27.203 18.7139 27.203 17.928H27.7064C27.7064 18.7139 28.3521 19.3549 29.1438 19.3549C29.9355 19.3549 30.5812 18.7139 30.5812 17.928H31.0846C31.0846 18.7139 31.7303 19.3549 32.522 19.3549C32.9639 19.3549 33.3598 19.1565 33.625 18.8436C33.7595 18.1683 33.8748 17.4015 33.9171 16.6231C33.3175 16.5316 32.8102 16.1691 32.522 15.6655C32.1876 16.2492 31.5573 16.646 30.8348 16.646C30.1123 16.646 29.482 16.2492 29.1476 15.6655C28.8133 16.2492 28.183 16.646 27.4605 16.646C26.7379 16.646 26.1077 16.2492 25.7733 15.6655C25.4851 16.1691 24.9777 16.5316 24.3782 16.6231C24.4166 17.4015 24.5319 18.1645 24.6626 18.8436ZM33.3022 12.0792C33.4482 12.2966 33.5942 12.5255 33.7326 12.7697C33.8479 12.9719 33.9478 13.1856 34.0285 13.4069C34.751 13.8571 35.2314 14.6545 35.2314 15.5587C35.2314 16.3294 34.8856 17.0199 34.336 17.4854C34.286 17.9356 34.2168 18.3705 34.14 18.7788C35.3736 18.2217 36.2345 16.9894 36.2345 15.5587C36.2384 13.8227 34.9663 12.3729 33.3022 12.0792ZM39.6973 53.4024C39.8356 52.7233 40.3929 52.1929 41.0808 52.0785C41.5382 52.0022 41.911 51.6664 42.0339 51.2238L42.5912 48.3586L43.0831 48.454L42.5259 51.3307L42.522 51.3498C42.3491 51.9869 41.8187 52.4676 41.1615 52.5745C40.6773 52.6546 40.2853 53.0285 40.1892 53.5092L39.6973 53.4024ZM36.9647 53.2765L36.3652 57.2024C36.3498 57.3092 36.4305 57.4046 36.542 57.4046H37.8986L38.2484 54.8636L38.7441 54.9323L38.3598 57.7251C38.429 58.0303 38.7019 58.2554 39.0247 58.2554H40.8195C40.8003 58.1524 40.7964 58.0417 40.8118 57.9273L41.3498 54.3524C41.3652 54.2455 41.3883 54.1807 41.4344 54.0586C41.665 53.4558 42.1992 53.0285 42.8372 52.9064C43.1254 52.8492 43.3598 52.6355 43.4444 52.357V52.3532L44.067 49.0453C44.067 49.0453 44.3975 47.1262 43.1831 46.1724C43.1562 46.1915 42.6296 47.2102 41.5574 47.2102C41.4267 47.2102 41.296 47.1949 41.1615 47.1644L40.9117 48.6333L40.4159 48.5493L40.6811 46.9965C40.4428 46.8783 40.243 46.7142 40.0931 46.5158C39.8356 46.8134 39.6588 47.1797 39.5858 47.5955C39.5858 47.5955 38.8441 51.5291 38.8441 51.5367C38.7288 51.9564 38.3752 52.2921 37.914 52.3684C37.4221 52.4485 37.057 52.8224 36.9647 53.2765ZM44.901 54.5584C45.0509 53.8182 45.6581 53.2383 46.4114 53.1124C46.9302 53.0247 47.3529 52.6469 47.4913 52.1433L48.1062 48.969L48.5981 49.0644L47.9755 52.2654C47.7872 52.9598 47.2069 53.4863 46.4921 53.6046C45.9463 53.6961 45.5044 54.1196 45.3929 54.6576L44.901 54.5584ZM43.2945 56.1723L43.7903 56.2409L43.4944 58.3927C44.9509 57.1948 46.3037 55.8136 47.522 54.2799C48.2523 53.3642 48.9325 52.3875 49.559 51.3726C49.5935 50.0182 49.6243 48.866 49.6243 48.8584C49.6473 47.9084 49.336 47.0461 48.6789 46.5311C48.6558 46.5463 48.0524 47.668 46.934 47.6413C46.7842 47.6375 46.6304 47.6222 46.4767 47.5841L46.1885 49.2628L45.6927 49.1789L45.9963 47.4124C45.7311 47.2827 45.512 47.1034 45.3468 46.8821C45.0432 47.2178 44.8318 47.6413 44.7511 48.1182C44.7511 48.1182 43.9286 52.4829 43.9248 52.4981C43.7903 52.956 43.406 53.3222 42.8987 53.4062C42.3645 53.4939 41.9609 53.8984 41.8533 54.3943C41.8495 54.4058 41.3076 58.0074 41.3076 58.0074C41.2615 58.3126 41.4844 58.4805 41.7957 58.4805C41.7957 58.4805 41.9148 58.4843 42.0762 58.4843H42.0801C42.0877 58.4843 42.0954 58.4843 42.107 58.4843C42.449 58.4919 42.9525 58.4996 42.9717 58.5034L43.2945 56.1723ZM42.791 34.7266H42.1684V32.8266C42.1684 32.6549 42.3106 32.5176 42.4797 32.5176C42.6527 32.5176 42.791 32.6549 42.791 32.8266V34.7266ZM47.6489 32.8266C47.6489 32.6549 47.7872 32.5176 47.9602 32.5176C48.1293 32.5176 48.2715 32.6549 48.2715 32.8266V34.7266H47.6489V32.8266ZM44.0593 40.1138V37.2714C44.0593 36.6304 44.5781 36.1077 45.22 36.1077C45.8618 36.1077 46.3806 36.6304 46.3806 37.2714V40.1138H51.5267L50.6466 30.9037H45.2238H39.801L38.9171 40.1138H44.0593ZM45.2238 41.9642H51.5305V40.7509H45.2238H38.9171V41.9642H45.2238ZM41.5766 44.0015C41.6035 44.0626 41.6073 44.1313 41.5843 44.1923L41.2845 45.0126L41.6073 45.1652L41.3921 45.6154L40.8656 45.3674C40.7503 45.314 40.6927 45.1805 40.7388 45.0584L41.027 44.261L40.5236 44.0817C40.5236 44.0817 40.1123 44.7799 40.2545 45.6459C40.3275 46.0809 40.5658 46.4624 41.1193 46.6417C41.5881 46.8096 42.2645 46.7485 42.7718 45.8825C42.8449 45.8481 42.9409 45.7947 43.0178 45.7184C43.1715 45.5696 43.9671 43.9786 43.2599 43.2843C42.399 42.4411 41.4613 42.7578 41.3306 42.8112C41.1154 42.8989 40.9578 43.311 40.9578 43.311C40.8464 43.414 40.7503 43.6315 40.7503 43.6315L41.4344 43.8756C41.4959 43.8947 41.5458 43.9405 41.5766 44.0015ZM46.273 43.372C46.1539 43.4979 46.1001 43.6086 46.1001 43.6086L46.027 43.7535L46.7918 44.0282C46.8533 44.0511 46.9071 44.0969 46.934 44.158C46.9609 44.219 46.9648 44.2877 46.9417 44.3487L46.6074 45.2682L46.9302 45.3979L46.7419 45.8596L46.1961 45.6383C46.0693 45.5887 46.0078 45.4475 46.0539 45.3216L46.3845 44.4136L45.8003 44.2037C45.8003 44.2037 45.3353 45.0317 45.4928 45.9588C45.5735 46.4395 45.8387 46.863 46.4498 47.0614C46.6227 47.1186 47.5297 47.4582 48.2792 46.2182C48.3599 46.1801 48.4636 46.1228 48.552 46.0389C48.7211 45.8748 49.582 44.1084 48.8211 43.3415C48.3214 42.8379 47.5451 42.5365 46.6996 42.8074C46.4383 42.8951 46.2884 43.3568 46.273 43.372ZM45.5697 26.1384V27.1571H44.8779V26.1384H43.6865V28.4657H46.7611V26.1384H45.5697ZM40.9117 25.2571H44.1631L44.6781 23.3151V23.3113C44.5858 23.2541 44.5051 23.1778 44.4398 23.0824C44.1746 22.7047 44.2592 22.1934 44.6243 21.9378L44.9778 21.6898C44.7242 21.274 44.5781 20.7856 44.5781 20.2629C44.5781 19.9272 44.3168 19.6525 43.994 19.6525C43.8364 19.6525 43.6827 19.6372 43.5289 19.6105L43.2484 19.8089C41.4882 21.045 41.6304 22.6017 42.8103 23.3151H42.8064C42.8064 23.773 42.4413 24.1469 41.9917 24.1469C41.396 24.1469 40.9117 24.6428 40.9117 25.2571ZM39.7972 28.4657H42.9947V26.6497H41.7419V27.5577H41.0501V26.6497H39.7972V28.4657ZM50.6466 26.6459H49.3937V27.5539H48.7019V26.6459H47.449V28.4619H50.6466V26.6459ZM52.0763 29.0609H45.22H38.3675L39.067 30.2742H45.22H51.373L52.0763 29.0609ZM42.8064 62.9329C43.5097 62.4865 44.1938 62.0058 44.8587 61.4907C45.0124 61.3725 45.1623 61.2542 45.3122 61.1321C48.7826 58.347 51.6996 54.6881 53.8365 50.4303C53.8172 50.4303 53.798 50.4303 53.7826 50.4303C53.4444 50.4303 53.1062 50.3769 52.7796 50.2738C52.18 50.0831 51.6766 49.7397 51.2961 49.2971C49.3668 53.1124 46.7611 56.3859 43.6788 58.8925C43.5366 59.007 43.3944 59.1215 43.2484 59.2359C42.6373 59.709 42.007 60.1554 41.3614 60.5675C40.7042 60.9642 40.4967 61.815 40.8963 62.4675C41.1577 62.8948 41.6189 63.1313 42.0877 63.1313C42.3299 63.1313 42.5797 63.0703 42.8064 62.9329ZM34.555 65.3633C34.7126 65.7066 34.9317 66.0004 35.193 66.2408C35.3506 66.3896 35.5274 66.5155 35.7118 66.6185C36.1308 66.855 36.6073 66.9809 37.0916 66.9809C37.4797 66.9809 37.8717 66.9008 38.2445 66.7329L43.2369 64.2683C44.14 63.86 44.7165 63.0359 44.8433 62.1279C44.2668 62.559 43.6788 62.9673 43.0793 63.3488L43.0754 63.3526L43.0716 63.3564C42.7757 63.5357 42.4336 63.6311 42.0877 63.6311C41.419 63.6311 40.8156 63.2916 40.4659 62.7269C40.2046 62.2996 40.1239 61.7921 40.243 61.3038C40.3621 60.8193 40.6658 60.4072 41.0923 60.144C41.6304 59.8006 42.1569 59.4305 42.6681 59.0413C42.4759 58.9994 42.2799 58.9803 42.0801 58.9803C41.6919 58.9803 41.2999 59.0604 40.9271 59.2283L35.9348 61.693C35.3122 61.9753 34.8433 62.456 34.5743 63.0245C34.4859 63.2038 34.4205 63.3946 34.3744 63.5891C34.2399 64.1653 34.2899 64.7871 34.555 65.3633ZM24.1207 65.5693C23.9824 65.8669 23.8056 66.1377 23.5903 66.3781C25.3774 66.7863 27.2222 67 29.1092 67C30.9962 67 32.841 66.7863 34.6281 66.3781C34.4128 66.1416 34.2361 65.8669 34.0977 65.5693C33.8287 64.9817 33.7403 64.3408 33.8402 63.7189C32.3068 64.0546 30.7234 64.2301 29.1092 64.2301C27.4951 64.2301 25.9116 64.0546 24.3782 63.7189C24.4781 64.3408 24.3897 64.9817 24.1207 65.5693ZM15.1391 63.3526C14.5357 62.9673 13.9477 62.5628 13.3712 62.1317C13.4981 63.0397 14.0745 63.8638 14.9777 64.2721L19.97 66.7367C20.3428 66.9046 20.7387 66.9847 21.123 66.9847C21.6072 66.9847 22.0838 66.8588 22.5027 66.6223C22.691 66.5193 22.864 66.3934 23.0216 66.2446C23.2829 66.0042 23.502 65.7104 23.6595 65.3671C23.9247 64.791 23.9747 64.1691 23.8402 63.5968C23.794 63.4022 23.7287 63.2114 23.6441 63.0321C23.3713 62.4636 22.9063 61.9829 22.2837 61.7006L17.2913 59.2359C16.9185 59.068 16.5227 58.9879 16.1384 58.9879C15.9385 58.9879 15.7425 59.0108 15.5503 59.049C16.0653 59.4381 16.5919 59.8082 17.1261 60.1516C18.0138 60.6934 18.2944 61.8494 17.7525 62.7345C17.4066 63.2992 16.7994 63.6387 16.1307 63.6387C15.7848 63.6387 15.4427 63.5434 15.1468 63.364L15.143 63.3602L15.1391 63.3526ZM4.43576 50.4303C4.41654 50.4303 4.39733 50.4303 4.38196 50.4303C6.51878 54.6881 9.43578 58.347 12.9062 61.1321C13.0561 61.2542 13.2098 61.3725 13.3597 61.4907C14.0246 62.0058 14.7087 62.4865 15.412 62.9329C15.6387 63.0703 15.8885 63.1351 16.1345 63.1351C16.6034 63.1351 17.0646 62.8986 17.3259 62.4713C17.7256 61.8189 17.5181 60.9681 16.8609 60.5713C16.2152 60.1592 15.5888 59.7128 14.9777 59.2359C14.8317 59.1253 14.6895 59.0108 14.5473 58.8964C11.4612 56.3935 8.85546 53.1162 6.92616 49.301C6.54569 49.7397 6.03838 50.0869 5.44268 50.2777C5.11217 50.3769 4.77781 50.4303 4.43576 50.4303ZM0.534897 40.2473C0.0314357 40.9341 -0.145352 41.8459 0.135203 42.7158L1.78394 48.0038C2.06065 48.8584 2.714 49.4879 3.5057 49.7664C3.70555 49.8389 3.91693 49.8847 4.1283 49.9076C4.23207 49.919 4.33199 49.9228 4.43576 49.9228C4.71632 49.9228 5.00456 49.8809 5.28511 49.7893C5.86544 49.6024 6.34584 49.2475 6.6802 48.7935C6.80318 48.6295 6.9031 48.454 6.98381 48.2708C7.24899 47.6718 7.30664 46.9813 7.08758 46.3098L5.43884 41.018C5.22746 40.3656 4.79318 39.8429 4.24744 39.5071C4.35505 40.1481 4.48188 40.7814 4.62408 41.411C4.87004 42.4144 4.24744 43.4331 3.23283 43.6811C3.08295 43.7154 2.93306 43.7345 2.77933 43.7345C1.90692 43.7345 1.14981 43.1469 0.938435 42.2999V42.2961V42.2923C0.792392 41.6284 0.654037 40.9417 0.534897 40.2473ZM3.24821 33.4981V33.4905C3.24821 31.7164 3.37503 29.9766 3.621 28.2826C3.6479 28.0995 3.6748 27.9163 3.70555 27.737C3.82853 26.9663 3.97842 26.2033 4.14752 25.4517C4.33199 24.7077 3.87465 23.9599 3.12522 23.7768C3.01377 23.7501 2.90232 23.7386 2.79086 23.7386C2.16442 23.7386 1.59562 24.1621 1.43805 24.7916C1.25358 25.589 1.09601 26.3941 0.965337 27.2143C0.934591 27.4013 0.907689 27.5882 0.876943 27.779C0.604075 29.637 0.461876 31.5447 0.461876 33.4905V33.4981C0.461876 35.4477 0.604075 37.3553 0.876943 39.2134C0.903846 39.4041 0.934591 39.5911 0.965337 39.778C1.09601 40.5945 1.25358 41.3995 1.43805 42.1931C1.59562 42.8226 2.16442 43.2461 2.79086 43.2461C2.90232 43.2461 3.01377 43.2309 3.12522 43.2041C3.87081 43.021 4.32815 42.2732 4.14752 41.5292C3.97842 40.7814 3.82853 40.0222 3.70555 39.2515C3.6748 39.0684 3.6479 38.8891 3.621 38.7059C3.37503 37.0196 3.24821 35.276 3.24821 33.4981ZM4.43576 17.0657C4.33584 17.0657 4.23207 17.0695 4.13215 17.081C3.91693 17.1039 3.70939 17.1535 3.50955 17.2221C2.714 17.5007 2.05681 18.1302 1.7801 18.9886L0.135203 24.2804C-0.145352 25.1541 0.0314357 26.0621 0.531054 26.7489C0.650193 26.0545 0.788549 25.3677 0.946121 24.681V24.6772V24.6734C1.15365 23.8302 1.91077 23.2388 2.78702 23.2388C2.94075 23.2388 3.09064 23.2579 3.24052 23.2922C4.25513 23.5402 4.87773 24.5589 4.63176 25.5623C4.48957 26.1957 4.36274 26.8328 4.25129 27.4738C4.79702 27.138 5.23131 26.6192 5.44268 25.9629L7.09142 20.6711C7.30664 19.9997 7.25284 19.3053 6.98381 18.7101C6.9031 18.527 6.79934 18.3515 6.6802 18.1874C6.34584 17.7334 5.86544 17.3786 5.28511 17.1916C5.00456 17.1077 4.71632 17.0657 4.43576 17.0657ZM11.7878 6.81026C8.80934 9.45806 6.28819 12.7773 4.3858 16.5697C4.40501 16.5697 4.42039 16.5697 4.4396 16.5697C4.77781 16.5697 5.11601 16.6231 5.44268 16.7262C6.02685 16.9131 6.538 17.2488 6.93001 17.699C8.64408 14.3073 10.8962 11.3428 13.5403 8.96589C13.6787 8.8438 13.817 8.72171 13.9554 8.59962C14.5434 8.09219 15.1506 7.61528 15.7732 7.1689C16.4074 6.73396 16.5688 5.87552 16.1307 5.246C15.8616 4.85684 15.4235 4.647 14.9815 4.647C14.7087 4.647 14.4358 4.72712 14.1937 4.89118C13.5173 5.37572 12.8601 5.88697 12.2221 6.43255C12.0761 6.55464 11.93 6.68054 11.7878 6.81026ZM22.3106 2.03354C22.1338 1.68635 21.8916 1.39257 21.6034 1.15984C21.4343 1.02249 21.2537 0.908035 21.0615 0.812653C20.6772 0.625705 20.2544 0.526508 19.824 0.526508C19.3974 0.526508 18.9631 0.625705 18.5596 0.827914L13.7133 3.56346C12.8255 4.01367 12.2836 4.8721 12.2029 5.79158C12.7525 5.33375 13.3174 4.89881 13.8978 4.48294L13.9016 4.47913L13.9054 4.47531C14.2244 4.25784 14.5934 4.14339 14.9777 4.14339C15.6041 4.14339 16.1883 4.44861 16.5419 4.95985C16.8301 5.37572 16.9339 5.87552 16.8455 6.36769C16.7533 6.85986 16.4766 7.28717 16.0615 7.57332C15.5388 7.94721 15.0315 8.344 14.5357 8.75986C14.6856 8.78276 14.8355 8.7942 14.9854 8.7942C15.412 8.7942 15.8463 8.69882 16.2498 8.4928L21.0961 5.75725C21.7187 5.44058 22.1684 4.92552 22.4143 4.33033C22.4912 4.1472 22.545 3.95262 22.5796 3.75423C22.6757 3.18957 22.595 2.58675 22.3106 2.03354ZM35.4582 1.80844C35.6158 1.50322 35.8156 1.22852 36.0539 0.991971C33.8287 0.343374 31.5035 0 29.1092 0C26.7149 0 24.3897 0.343374 22.1645 0.991971C22.3989 1.22852 22.6026 1.50322 22.7602 1.80844C23.0485 2.36928 23.1676 2.98736 23.1061 3.60162C25.0354 3.05603 27.0454 2.76989 29.113 2.76989C31.1769 2.76989 33.1869 3.05603 35.1123 3.60162C35.0547 2.98736 35.17 2.36928 35.4582 1.80844ZM44.3168 4.48676C44.8933 4.89881 45.4582 5.33757 46.0117 5.7954C45.931 4.87592 45.3891 4.01748 44.5013 3.56728L39.655 0.831729C39.2476 0.625705 38.8172 0.530323 38.3906 0.530323C37.9601 0.530323 37.5335 0.62952 37.1492 0.820284C36.9571 0.915665 36.7764 1.03012 36.6073 1.16747C36.3229 1.40021 36.0808 1.69398 35.9002 2.04117C35.6158 2.59439 35.5351 3.19338 35.635 3.76186C35.6696 3.96025 35.7234 4.15102 35.8002 4.33796C36.0424 4.93696 36.4959 5.45202 37.1185 5.76488L41.9648 8.50043C42.3721 8.70645 42.8026 8.80183 43.2292 8.80183C43.3791 8.80183 43.5289 8.79039 43.6788 8.7675C43.1831 8.35163 42.6758 7.95866 42.1531 7.58095C41.738 7.2948 41.4613 6.86749 41.3691 6.37532C41.2768 5.87933 41.3844 5.37953 41.6727 4.96748C42.0262 4.45624 42.6104 4.15102 43.2369 4.15102C43.6212 4.15102 43.994 4.26547 44.3091 4.48294L44.313 4.48676H44.3168ZM53.7826 16.5697C53.8019 16.5697 53.8172 16.5697 53.8365 16.5697C51.9341 12.7773 49.4129 9.46188 46.4344 6.81026C46.2922 6.68054 46.1462 6.55464 46.0001 6.43255C45.3622 5.88697 44.705 5.37572 44.0324 4.89118C43.7903 4.72712 43.5174 4.647 43.2445 4.647C42.8026 4.647 42.3645 4.85684 42.0954 5.246C41.6573 5.87552 41.8187 6.73777 42.4528 7.1689C43.0754 7.61528 43.6827 8.09219 44.2707 8.59962C44.409 8.72171 44.5474 8.83999 44.6858 8.96589C47.3337 11.3428 49.582 14.3073 51.2961 17.699C51.6881 17.2488 52.1954 16.9131 52.7834 16.7262C53.1024 16.6231 53.4406 16.5697 53.7826 16.5697ZM58.0832 24.2804L56.4345 18.9924C56.1578 18.134 55.5006 17.5045 54.7089 17.226C54.509 17.1573 54.3015 17.1077 54.0863 17.0848C53.9863 17.0733 53.8826 17.0657 53.7826 17.0657C53.5021 17.0657 53.2139 17.1077 52.9333 17.1992C52.353 17.3862 51.8764 17.741 51.5382 18.195C51.4191 18.3591 51.3153 18.5346 51.2346 18.7177C50.9656 19.3167 50.9118 20.0073 51.1308 20.6788L52.7796 25.9706C52.9909 26.6268 53.4252 27.1495 53.971 27.4814C53.8634 26.8404 53.7365 26.2033 53.5905 25.57C53.3445 24.5627 53.9671 23.544 54.9817 23.2999C55.1316 23.2655 55.2815 23.2465 55.4352 23.2465C56.3115 23.2465 57.0648 23.834 57.2761 24.681V24.6848V24.6886C57.4337 25.3716 57.5721 26.0583 57.6912 26.7527C58.187 26.0621 58.3638 25.1503 58.0832 24.2804Z" fill="#F2B533"/>
</g>
<defs>
<clipPath id="clip0">
<rect width="166" height="67" fill="white"/>
</clipPath>
</defs>
</svg>
